<svg xmlns="http://www.w3.org/2000/svg" viewBox="0 0 500 500"><g id="freepik--background-complete--inject-5"><path d="M107.09,351,93,351.3c-4.74.08-9.52.16-14.3.16h-.45V351l0-11.19v-.5h.5l14.18.06c4.73,0,9.46.12,14.18.17h.28v.26Zm0,0-.26-11.19.26.27c-4.72.05-9.45.16-14.18.17l-14.18.06.5-.5,0,11.19-.45-.44c4.67,0,9.35.08,14.06.16Z" style="fill:#ebebeb"></path><path d="M91.27,365.12l-14.07.29c-4.73.08-9.51.16-14.3.16h-.44v-.45l-.05-11.19v-.5h.5l14.19.06c4.73,0,9.45.12,14.18.17h.27v.26Zm0,0L91,353.93l.26.27c-4.73.05-9.45.16-14.18.17l-14.19.06.5-.5,0,11.19-.45-.44c4.68,0,9.35.08,14.07.16Z" style="fill:#ebebeb"></path><path d="M340.73,275.2l-14.06.28c-4.74.08-9.52.16-14.3.17h-.45v-.45L311.87,264v-.5h.51l14.18.06c4.73,0,9.45.12,14.18.17H341V264Zm0,0L340.47,264l.26.26c-4.73.06-9.45.16-14.18.17l-14.18.07.49-.5-.05,11.19-.44-.45c4.67,0,9.34.09,14.06.17Z" style="fill:#ebebeb"></path><path d="M308.76,275.2l-14.07.28c-4.73.08-9.51.16-14.3.17H280v-.45L279.89,264v-.5h.5l14.19.06c4.73,0,9.45.12,14.18.17H309V264Zm0,0L308.5,264l.26.26c-4.73.06-9.45.16-14.18.17l-14.19.07.5-.5-.05,11.19-.45-.45c4.68,0,9.35.09,14.07.17Z" style="fill:#ebebeb"></path><path d="M324.78,289.31l-14.07.28c-4.74.08-9.51.16-14.3.17H296v-.45l0-11.19v-.5h.5l14.19.06c4.72,0,9.45.12,14.18.17h.27v.26Zm0,0-.27-11.19.27.26c-4.73.06-9.46.16-14.18.17l-14.19.07.5-.5-.05,11.19-.45-.45c4.68,0,9.35.09,14.07.17Z" style="fill:#ebebeb"></path><path d="M437.1,365.12l-14.07.29c-4.74.08-9.52.16-14.3.16h-.45v-.45l0-11.19v-.5h.5l14.18.06c4.73,0,9.46.12,14.19.17h.27v.26Zm0,0-.27-11.19.27.27c-4.73.05-9.46.16-14.19.17l-14.18.06.5-.5-.05,11.19-.45-.44c4.67,0,9.35.08,14.07.16Z" style="fill:#ebebeb"></path><path d="M421.27,81.29l-14.06.28c-4.74.08-9.52.16-14.3.16h-.45v-.45l0-11.18v-.51h.51l14.18.06c4.73,0,9.45.12,14.18.17h.27v.27Zm0,0L421,70.1l.26.26c-4.73,0-9.45.16-14.18.17l-14.18.06.49-.49,0,11.18-.44-.44c4.67,0,9.34.08,14.06.16Z" style="fill:#ebebeb"></path><path d="M437.1,95.39,423,95.68c-4.74.08-9.52.16-14.3.16h-.45v-.45l0-11.18V83.7h.5l14.18.06c4.73,0,9.46.12,14.19.17h.27v.27Zm0,0-.27-11.18.27.26c-4.73,0-9.46.16-14.19.17l-14.18.06.5-.49-.05,11.18-.45-.44c4.67,0,9.35.08,14.07.16Z" style="fill:#ebebeb"></path><path d="M91.27,81.29l-14.07.28c-4.73.08-9.51.16-14.3.16h-.44v-.45L62.41,70.1v-.51h.5l14.19.06c4.73,0,9.45.12,14.18.17h.27v.27Zm0,0L91,70.1l.26.26c-4.73,0-9.45.16-14.18.17l-14.19.06.5-.49,0,11.18-.45-.44c4.68,0,9.35.08,14.07.16Z" style="fill:#ebebeb"></path><path d="M235.41,176.41l-14.06.28c-4.74.08-9.52.16-14.3.17h-.45v-.45l0-11.19v-.5h.5l14.18.06c4.73,0,9.46.12,14.18.17h.27v.26Zm0,0-.26-11.19.26.26c-4.72.06-9.45.16-14.18.17l-14.18.07.5-.5-.05,11.19-.45-.45c4.67,0,9.35.08,14.06.16Z" style="fill:#ebebeb"></path><rect x="104.8" width="1" height="138.61" style="fill:#c7c7c7"></rect><polygon points="153.89 185.45 149.98 194.04 60.61 194.04 56.72 185.45 94.76 159.11 115.84 159.11 153.89 185.45" style="fill:#ebebeb"></polygon><polygon points="118.48 133.74 115.84 159.11 94.76 159.11 92.12 133.74 118.48 133.74" style="fill:#dbdbdb"></polygon><polygon points="153.88 185.45 149.97 194.04 60.61 194.04 56.71 185.45 153.88 185.45" style="fill:#dbdbdb"></polygon><rect x="209.15" width="1" height="83.17" style="fill:#c7c7c7"></rect><polygon points="258.23 130.01 254.33 138.6 164.96 138.6 161.07 130.01 199.11 103.67 220.19 103.67 258.23 130.01" style="fill:#ebebeb"></polygon><polygon points="222.83 78.3 220.19 103.67 199.11 103.67 196.47 78.3 222.83 78.3" style="fill:#dbdbdb"></polygon><polygon points="258.23 130.01 254.32 138.6 164.96 138.6 161.06 130.01 258.23 130.01" style="fill:#dbdbdb"></polygon></g><g id="freepik--Sparkles--inject-5"><polygon points="265.14 116.47 273.49 114.92 275.36 106.12 277.23 114.92 285.58 116.47 277.26 118.51 275.36 126.82 273.46 118.51 265.14 116.47" style="fill:#FFC727"></polygon><polygon points="399.74 262.87 408.09 261.33 409.96 252.52 411.82 261.33 420.18 262.88 411.86 264.91 409.96 273.23 408.06 264.91 399.74 262.87" style="fill:#FFC727"></polygon><polygon points="289.09 244.4 293.76 243.54 294.8 238.62 295.85 243.54 300.52 244.4 295.87 245.54 294.8 250.19 293.74 245.54 289.09 244.4" style="fill:#FFC727"></polygon><polygon points="314.5 93.73 319.16 92.86 320.21 87.94 321.25 92.86 325.92 93.73 321.27 94.86 320.21 99.51 319.14 94.86 314.5 93.73" style="fill:#FFC727"></polygon><path d="M294.8,267.41a1.36,1.36,0,0,0,0-2.71A1.36,1.36,0,0,0,294.8,267.41Z" style="fill:#FFC727"></path><path d="M426.53,250.19a1,1,0,0,0,0-1.92A1,1,0,0,0,426.53,250.19Z" style="fill:#FFC727"></path><path d="M289.73,125.18a1,1,0,0,0,0-1.91A1,1,0,0,0,289.73,125.18Z" style="fill:#FFC727"></path><path d="M445.93,139.74a1,1,0,0,0,0-1.92A1,1,0,0,0,445.93,139.74Z" style="fill:#FFC727"></path><path d="M433.67,148.54c3.34,0,3.34-5.19,0-5.19S430.32,148.54,433.67,148.54Z" style="fill:#FFC727"></path></g><g id="freepik--light-bulb--inject-5"><g style="opacity:0.5"><path d="M426.34,179c-3.68,46-42,59.87-42,59.87-2.82,7-6.49,24.79-6.49,24.79H326.67s-3.67-17.79-6.49-24.79c0,0-38.33-13.87-42-59.87-2.55-32,20.21-79.23,73.8-79.24h.55C406.12,99.81,428.89,147.07,426.34,179Z" style="fill:#FFC727"></path></g><g style="opacity:0.7000000000000001"><path d="M420,179.27C416.65,221.35,381.59,234,381.59,234c-2.58,6.4-5.93,29.67-5.93,29.67h-46.8s-3.36-23.27-5.94-29.67c0,0-35.06-12.68-38.42-54.76C282.17,150,303,106.81,352,106.8h.51C401.52,106.81,422.35,150,420,179.27Z" style="fill:#FFC727"></path></g><rect x="330.8" y="186.79" width="3" height="81.95" transform="translate(-36.16 64.86) rotate(-10.58)" style="fill:#fff"></rect><rect x="331.25" y="226.26" width="81.95" height="3" transform="translate(80.21 552.03) rotate(-79.46)" style="fill:#fff"></rect><path d="M352.26,214.12c-4.58,0-8.78-4.28-11.73-9.75a6,6,0,0,1-4.34,2.46c-7.47,0-10.49-15.52-10.62-16.18l1-.18c0,.15,3,15.36,9.63,15.36h0c1.32,0,2.65-.92,3.86-2.4a34.18,34.18,0,0,1-3.78-14.36c0-4.29,1.59-6.75,4.38-6.75h0c3.25,0,5.11,2.62,5.11,7.18a26.55,26.55,0,0,1-4.53,14c2.79,5.36,6.77,9.63,11,9.63h0c3.2,0,6.4-2.5,9-7,.23-.41.46-.83.68-1.26-3-3.22-4.67-8.5-4.67-13.53,0-5.53,2.06-9,5.37-9h0a3.43,3.43,0,0,1,3.07,1.89c2.24,3.87,1,13.17-2.57,20.45a7.47,7.47,0,0,0,5.26,2.21h0c5.7,0,10-15.3,10.06-15.45l1,.27c-.19.66-4.57,16.18-11,16.18h0a8.38,8.38,0,0,1-5.71-2.32l-.57,1C360.16,210,356.84,214.12,352.26,214.12Zm10.41-30.8h0c-3.23,0-4.37,4.29-4.37,8,0,4,1.34,9.34,4.13,12.59,3.25-6.89,4.47-15.67,2.45-19.17A2.43,2.43,0,0,0,362.67,183.32Zm-22,0h0c-2.94,0-3.38,3.6-3.38,5.75a33.13,33.13,0,0,0,3.47,13.44,25.33,25.33,0,0,0,4-13C344.76,187.19,344.22,183.32,340.65,183.32Z" style="fill:#fff"></path><rect x="320.21" y="263.76" width="64.1" height="35.28" style="fill:#455a64"></rect><path d="M377,299c-3.77,6.69-11,12.67-24.78,12.67s-21-6-24.79-12.67Z" style="fill:#455a64"></path><path d="M377,299a24,24,0,0,1-4.16,5.43l-44.12-3.39a23.23,23.23,0,0,1-1.29-2Z" style="fill:#37474f"></path><polygon points="386.18 270.49 318.33 276.76 318.33 273.68 386.18 267.41 386.18 270.49" style="fill:#37474f"></polygon><polygon points="386.18 279.8 318.33 286.07 318.33 283 386.18 276.72 386.18 279.8" style="fill:#37474f"></polygon><polygon points="386.18 289.11 318.33 295.38 318.33 292.31 386.18 286.03 386.18 289.11" style="fill:#37474f"></polygon><g style="opacity:0.5"><path d="M294.32,168.29c2.35.39,5.4-11.74,18.44-25.78,5.79-6.23,27.77-14,26.19-21.23s-21.19.2-31.06,11.63C292,151.3,292.16,167.92,294.32,168.29Z" style="fill:#fff"></path><path d="M410,170.81c4.32,0,4.33-6.72,0-6.72S405.63,170.81,410,170.81Z" style="fill:#fff"></path><path d="M388.81,221.33c2.36,1.81,13.83-8.78,19-21.41,4.3-10.48,5-23.73,2.15-24.5s-4.76,17.41-8.23,24.11C397.35,208,386.28,219.41,388.81,221.33Z" style="fill:#fff"></path></g></g></svg>
