<svg width="343" height="344" viewBox="0 0 343 344" fill="none" xmlns="http://www.w3.org/2000/svg">
<path d="M343 262.826H0V262.998H343V262.826Z" fill="#E9ECEE"/>
<path d="M308.631 273.864H285.911V274.036H308.631V273.864Z" fill="#E9ECEE"/>
<path d="M227.217 275.73H221.256V275.902H227.217V275.73Z" fill="#E9ECEE"/>
<path d="M285.225 267.498H272.061V267.67H285.225V267.498Z" fill="#E9ECEE"/>
<path d="M65.6159 268.651H35.9876V268.822H65.6159V268.651Z" fill="#E9ECEE"/>
<path d="M76.0705 268.651H71.7282V268.822H76.0705V268.651Z" fill="#E9ECEE"/>
<path d="M154.453 271.545H90.1884V271.717H154.453V271.545Z" fill="#E9ECEE"/>
<path d="M162.582 232.231H30.1223C29.0846 232.229 28.09 231.816 27.3569 231.081C26.6238 230.347 26.2121 229.351 26.2121 228.314V42.1128C26.2211 41.081 26.6368 40.0945 27.369 39.3675C28.1011 38.6406 29.0905 38.2318 30.1223 38.23H162.582C163.621 38.23 164.617 38.6427 165.352 39.3773C166.086 40.1119 166.499 41.1082 166.499 42.1471V228.314C166.499 229.353 166.086 230.349 165.352 231.084C164.617 231.818 163.621 232.231 162.582 232.231ZM30.1223 38.3672C29.1301 38.369 28.1791 38.7644 27.4782 39.4667C26.7772 40.1689 26.3836 41.1206 26.3836 42.1128V228.314C26.3836 229.306 26.7772 230.258 27.4782 230.96C28.1791 231.662 29.1301 232.058 30.1223 232.059H162.582C163.575 232.058 164.526 231.662 165.229 230.96C165.931 230.258 166.326 229.307 166.328 228.314V42.1128C166.326 41.1199 165.931 40.1683 165.229 39.4663C164.526 38.7642 163.575 38.369 162.582 38.3672H30.1223Z" fill="#E9ECEE"/>
<path d="M310.971 232.231H178.504C177.466 232.229 176.47 231.816 175.736 231.082C175.002 230.347 174.589 229.352 174.587 228.314V42.1128C174.598 41.0804 175.015 40.0939 175.748 39.3671C176.482 38.6403 177.472 38.2318 178.504 38.23H310.971C312.001 38.2336 312.989 38.6432 313.719 39.37C314.45 40.0968 314.865 41.0822 314.874 42.1128V228.314C314.874 229.35 314.463 230.345 313.732 231.079C313 231.813 312.007 232.227 310.971 232.231ZM178.504 38.3672C177.511 38.369 176.56 38.7642 175.858 39.4663C175.155 40.1683 174.76 41.1199 174.758 42.1128V228.314C174.76 229.307 175.155 230.258 175.858 230.96C176.56 231.662 177.511 232.058 178.504 232.059H310.971C311.963 232.058 312.915 231.662 313.617 230.96C314.319 230.258 314.714 229.307 314.716 228.314V42.1128C314.714 41.1199 314.319 40.1683 313.617 39.4663C312.915 38.7642 311.963 38.369 310.971 38.3672H178.504Z" fill="#E9ECEE"/>
<path d="M112.861 224.534H59.1126V262.202H112.861V224.534Z" fill="#CFD5DB"/>
<path d="M96.7809 224.534H59.1126V262.202H96.7809V224.534Z" fill="white"/>
<path d="M87.5405 247.549C87.5405 251.665 84.2545 255.781 76.5645 255.781C73.3026 255.83 70.0768 255.094 67.1594 253.634L69.9034 247.686C71.8607 248.81 74.0745 249.41 76.3312 249.429C78.1423 249.429 79.4388 248.811 79.4388 247.583C79.4388 246.554 78.6568 245.944 76.6056 245.944H73.402V240.984L76.9281 237.396H68.3942V231.312H86.2302V236.265L81.7849 240.778C85.5511 241.67 87.5405 244.229 87.5405 247.549Z" fill="#CFD5DB"/>
<path d="M118.486 149.815H64.7378V187.483H118.486V149.815Z" fill="#CFD5DB"/>
<path d="M102.406 149.815H64.7378V187.483H102.406V149.815Z" fill="white"/>
<path d="M88.7684 156.558V180.486H80.7011V162.65H76.5851V156.565L88.7684 156.558Z" fill="#CFD5DB"/>
<path d="M72.5445 224.843H126.293V187.174H72.5445V224.843Z" fill="#CFD5DB"/>
<path d="M88.6312 224.843H126.299V187.174H88.6312V224.843Z" fill="#E9ECEE"/>
<path d="M117.368 212.275V218.531H98.1598V213.578L106.838 205.614C108.477 204.077 108.717 203.151 108.717 202.328C108.717 201.169 107.928 200.448 106.392 200.448C105.655 200.45 104.934 200.659 104.312 201.053C103.689 201.446 103.19 202.007 102.873 202.671L96.7878 199.632C98.5302 196.346 101.981 194.089 107.146 194.089C112.82 194.089 116.819 197.032 116.819 201.58C116.819 203.94 116.202 206.06 112.703 209.202L109.273 212.309L117.368 212.275Z" fill="white"/>
<path d="M280.684 253.291H225.351L227.327 250.142C234.104 239.324 242.247 226.269 249.697 214.237L226.956 180.115L230.386 177.831L252.084 210.416C262.518 193.554 271.08 179.546 271.738 177.934C271.661 178.133 271.624 178.345 271.629 178.558H275.745C275.745 179.409 275.745 180.033 254.588 214.182L280.684 253.291ZM232.78 249.175H273.028L252.242 217.996C244.216 230.852 236.348 243.481 232.78 249.175Z" fill="#CFD5DB"/>
<path d="M207.988 152.476C242.384 151.269 245.828 181.158 245.828 181.158L261.949 179.1C261.949 179.1 252.448 220.891 233.679 223.786C214.91 226.681 196.134 217.742 188.698 182.667C188.129 179.999 188.039 153.176 207.988 152.476Z" fill="white"/>
<path d="M191.84 184.135C191.84 184.135 199.866 220.493 215.713 220.692C231.559 220.891 233.679 182.667 233.679 182.667L191.84 184.135Z" fill="#DFE3E7"/>
<path d="M277.652 186.859H172.831C171.735 186.859 170.65 186.643 169.637 186.223C168.624 185.804 167.705 185.188 166.93 184.413C166.155 183.638 165.541 182.717 165.122 181.705C164.703 180.692 164.488 179.606 164.489 178.51C164.489 176.298 165.368 174.176 166.932 172.612C168.497 171.047 170.618 170.168 172.831 170.168H277.652C279.865 170.168 281.987 171.047 283.553 172.611C285.118 174.175 285.998 176.297 286 178.51C286 179.607 285.784 180.692 285.365 181.705C284.945 182.718 284.33 183.638 283.555 184.414C282.78 185.189 281.859 185.804 280.846 186.223C279.834 186.643 278.748 186.859 277.652 186.859Z" fill="#CFD5DB"/>
<path d="M277.926 253.805H172.556C171.692 253.805 170.863 253.462 170.252 252.851C169.641 252.24 169.298 251.411 169.298 250.547C169.298 249.683 169.641 248.854 170.252 248.243C170.863 247.632 171.692 247.288 172.556 247.288H277.926C278.354 247.288 278.778 247.371 279.174 247.535C279.57 247.698 279.929 247.938 280.232 248.241C280.535 248.544 280.775 248.903 280.938 249.299C281.102 249.695 281.185 250.119 281.185 250.547C281.185 251.411 280.841 252.24 280.23 252.851C279.619 253.462 278.79 253.805 277.926 253.805Z" fill="#CFD5DB"/>
<path d="M225.763 253.291H170.437L172.406 250.142C179.19 239.324 187.333 226.269 194.783 214.237L172.042 180.115L175.472 177.831L197.17 210.416C207.604 193.554 216.165 179.546 216.824 177.934C216.747 178.133 216.71 178.345 216.714 178.558H220.83C220.83 179.409 220.83 180.033 199.674 214.182L225.763 253.291ZM177.866 249.175H218.079L197.294 217.996C189.336 230.852 181.433 243.481 177.866 249.175Z" fill="#CFD5DB"/>
<path d="M173.146 264.432C176.268 264.432 178.799 261.747 178.799 258.436C178.799 255.125 176.268 252.44 173.146 252.44C170.025 252.44 167.494 255.125 167.494 258.436C167.494 261.747 170.025 264.432 173.146 264.432Z" fill="#CFD5DB"/>
<path d="M171.596 261.976C173.441 261.976 174.937 260.391 174.937 258.436C174.937 256.481 173.441 254.896 171.596 254.896C169.751 254.896 168.255 256.481 168.255 258.436C168.255 260.391 169.751 261.976 171.596 261.976Z" fill="#E9ECEE"/>
<path d="M219.136 264.432C222.258 264.432 224.788 261.747 224.788 258.436C224.788 255.125 222.258 252.44 219.136 252.44C216.014 252.44 213.483 255.125 213.483 258.436C213.483 261.747 216.014 264.432 219.136 264.432Z" fill="#CFD5DB"/>
<path d="M217.592 261.976C219.437 261.976 220.933 260.391 220.933 258.436C220.933 256.481 219.437 254.896 217.592 254.896C215.747 254.896 214.252 256.481 214.252 258.436C214.252 260.391 215.747 261.976 217.592 261.976Z" fill="#E9ECEE"/>
<path d="M277.48 264.432C280.602 264.432 283.133 261.747 283.133 258.436C283.133 255.125 280.602 252.44 277.48 252.44C274.358 252.44 271.828 255.125 271.828 258.436C271.828 261.747 274.358 264.432 277.48 264.432Z" fill="#CFD5DB"/>
<path d="M279.277 258.436C279.239 259.087 279.01 259.712 278.62 260.235C278.23 260.757 277.696 261.155 277.083 261.377C276.47 261.6 275.806 261.638 275.171 261.488C274.537 261.337 273.96 261.004 273.513 260.53C273.065 260.056 272.766 259.461 272.653 258.819C272.539 258.177 272.616 257.516 272.874 256.917C273.131 256.318 273.559 255.807 274.103 255.448C274.647 255.089 275.285 254.897 275.937 254.896C276.389 254.908 276.834 255.009 277.247 255.193C277.661 255.378 278.033 255.642 278.344 255.971C278.654 256.3 278.897 256.687 279.057 257.11C279.217 257.533 279.292 257.984 279.277 258.436Z" fill="#E9ECEE"/>
<path d="M231.491 264.432C234.613 264.432 237.143 261.747 237.143 258.436C237.143 255.125 234.613 252.44 231.491 252.44C228.369 252.44 225.838 255.125 225.838 258.436C225.838 261.747 228.369 264.432 231.491 264.432Z" fill="#CFD5DB"/>
<path d="M233.281 258.436C233.242 259.087 233.014 259.713 232.623 260.235C232.233 260.758 231.699 261.155 231.085 261.378C230.472 261.6 229.807 261.638 229.173 261.487C228.538 261.336 227.962 261.003 227.514 260.528C227.067 260.053 226.769 259.457 226.656 258.815C226.543 258.172 226.621 257.511 226.879 256.912C227.138 256.313 227.566 255.803 228.112 255.445C228.657 255.087 229.295 254.896 229.947 254.896C230.399 254.909 230.844 255.01 231.256 255.195C231.668 255.38 232.04 255.644 232.35 255.973C232.66 256.302 232.901 256.689 233.061 257.112C233.221 257.534 233.296 257.984 233.281 258.436Z" fill="#E9ECEE"/>
<path d="M83.596 48.0192H82.6356V101.383H83.596V48.0192Z" fill="#CFD5DB"/>
<path d="M132.864 48.0192H131.904V96.6635H132.864V48.0192Z" fill="#CFD5DB"/>
<path d="M175.89 48.0192H174.93V107.386H175.89V48.0192Z" fill="#CFD5DB"/>
<path d="M219.952 48.0192H218.992V101.383H219.952V48.0192Z" fill="#CFD5DB"/>
<path d="M262.964 48.0192H262.004V104.683H262.964V48.0192Z" fill="#CFD5DB"/>
<path d="M94.1184 89.2846L58.9583 101.874L71.5474 137.034L106.707 124.445L94.1184 89.2846Z" fill="#CFD5DB"/>
<path d="M88.9674 99.284L96.383 119.987L90.552 122.087L87.664 114.012L79.6789 116.873L82.567 124.947L76.7085 127.046L69.286 106.343L75.1376 104.244L77.9227 112.023L85.9146 109.162L83.1295 101.383L88.9674 99.284Z" fill="white"/>
<path d="M153.624 84.4967L117.102 76.6938L109.3 113.215L145.821 121.018L153.624 84.4967Z" fill="white"/>
<path d="M134.545 106.384L125.449 104.443L122.869 108.257L116.661 106.933L130.752 87.4574L136.74 88.7333L141.673 112.277L135.341 110.905L134.545 106.384ZM133.722 101.52L132.398 94.043L128.165 100.334L133.722 101.52Z" fill="#CFD5DB"/>
<path d="M190.063 89.1214L153.45 96.4839L160.813 133.097L197.426 125.734L190.063 89.1214Z" fill="#CFD5DB"/>
<path d="M184.589 106.364C185.577 111.262 182.49 115.055 176.604 116.235L172.851 116.99L173.983 122.629L167.885 123.85L163.549 102.289L173.407 100.313C179.286 99.1262 183.601 101.431 184.589 106.364ZM178.415 107.598C178.01 105.595 176.515 104.683 173.99 105.19L170.601 105.876L171.87 112.195L175.259 111.509C177.797 110.994 178.826 109.574 178.429 107.598H178.415Z" fill="white"/>
<path d="M240.335 80.9535L203.027 79.2724L201.346 116.58L238.654 118.261L240.335 80.9535Z" fill="white"/>
<path d="M230.873 96.3616C230.647 101.349 226.757 104.292 220.748 104.017L216.913 103.846L216.659 109.588L210.444 109.313L211.432 87.3613L221.475 87.8141C227.471 88.061 231.1 91.3401 230.873 96.3616ZM224.596 96.0804C224.686 94.0224 223.451 92.7876 220.878 92.6504L217.448 92.4926L217.16 98.9273L220.59 99.0851C223.163 99.2223 224.5 98.0904 224.596 96.0804Z" fill="#CFD5DB"/>
<path d="M280.298 92.2674L243.141 96.022L246.896 133.179L284.052 129.424L280.298 92.2674Z" fill="#CFD5DB"/>
<path d="M266.984 115.515L267.78 123.363L261.606 123.987L260.804 116.05L251.055 102.954L257.586 102.268L263.65 110.438L267.965 101.225L273.968 100.615L266.984 115.515Z" fill="white"/>
<path d="M171.5 293.806C244.959 293.806 304.509 290.329 304.509 286.041C304.509 281.752 244.959 278.275 171.5 278.275C98.0414 278.275 38.4915 281.752 38.4915 286.041C38.4915 290.329 98.0414 293.806 171.5 293.806Z" fill="white"/>
<path d="M285.357 270.117L294.999 250.954C295.355 250.247 295.07 249.385 294.362 249.029L266.449 234.984C265.742 234.628 264.88 234.913 264.524 235.621L254.882 254.783C254.526 255.49 254.811 256.352 255.519 256.708L283.432 270.753C284.139 271.109 285.001 270.824 285.357 270.117Z" fill="#1C6DAB"/>
<path opacity="0.2" d="M285.357 270.117L294.999 250.954C295.355 250.247 295.07 249.385 294.362 249.029L266.449 234.984C265.742 234.628 264.88 234.913 264.524 235.621L254.882 254.783C254.526 255.49 254.811 256.352 255.519 256.708L283.432 270.753C284.139 271.109 285.001 270.824 285.357 270.117Z" fill="white"/>
<path opacity="0.2" d="M290.364 260.157L294.992 250.959C295.348 250.251 295.063 249.389 294.356 249.033L266.443 234.989C265.735 234.633 264.874 234.918 264.518 235.625L259.889 244.823C259.534 245.53 259.818 246.392 260.526 246.748L288.439 260.793C289.146 261.149 290.008 260.864 290.364 260.157Z" fill="white"/>
<path d="M290.459 248.88C290.638 248.523 291.797 246.225 291.975 245.862C292.538 244.757 290.843 242.775 288.202 241.444C285.561 240.113 282.961 239.935 282.406 241.046L280.89 244.064C280.327 245.176 282.021 247.151 284.663 248.482C287.304 249.813 289.904 249.991 290.459 248.88Z" fill="#1C6DAB"/>
<path opacity="0.1" d="M290.459 248.88C290.638 248.523 291.797 246.225 291.975 245.862C292.538 244.757 290.843 242.775 288.202 241.444C285.561 240.113 282.961 239.935 282.406 241.046L280.89 244.064C280.327 245.176 282.021 247.151 284.663 248.482C287.304 249.813 289.904 249.991 290.459 248.88Z" fill="white"/>
<path opacity="0.2" d="M286.179 245.464C283.538 244.133 281.843 242.157 282.406 241.046C282.968 239.935 285.561 240.12 288.202 241.444C290.843 242.768 292.538 244.757 291.975 245.862C291.413 246.966 288.806 246.774 286.179 245.464Z" fill="white"/>
<path d="M278.516 242.864C278.701 242.5 279.854 240.202 280.039 239.845C280.595 238.734 278.9 236.758 276.259 235.428C273.618 234.097 271.018 233.918 270.462 235.03C270.284 235.386 269.09 237.685 268.946 238.048C268.384 239.153 270.078 241.135 272.719 242.466C275.36 243.797 277.94 243.968 278.516 242.864Z" fill="#1C6DAB"/>
<path opacity="0.1" d="M278.516 242.864C278.701 242.5 279.854 240.202 280.039 239.845C280.595 238.734 278.9 236.758 276.259 235.428C273.618 234.097 271.018 233.918 270.462 235.03C270.284 235.386 269.09 237.685 268.946 238.048C268.384 239.153 270.078 241.135 272.719 242.466C275.36 243.797 277.94 243.968 278.516 242.864Z" fill="white"/>
<path opacity="0.2" d="M274.215 239.448C271.574 238.117 269.886 236.141 270.442 235.03C270.997 233.918 273.597 234.097 276.238 235.428C278.88 236.758 280.574 238.734 280.018 239.845C279.463 240.957 276.863 240.778 274.215 239.448Z" fill="white"/>
<path d="M286.954 255.85C287.132 255.486 288.292 253.188 288.47 252.831C289.032 251.72 287.338 249.744 284.697 248.414C282.056 247.083 279.456 246.904 278.9 248.016C278.715 248.372 277.563 250.67 277.384 251.034C276.822 252.145 278.516 254.121 281.157 255.452C283.798 256.783 286.398 256.961 286.954 255.85Z" fill="#1C6DAB"/>
<path opacity="0.1" d="M286.954 255.85C287.132 255.486 288.292 253.188 288.47 252.831C289.032 251.72 287.338 249.744 284.697 248.414C282.056 247.083 279.456 246.904 278.9 248.016C278.715 248.372 277.563 250.67 277.384 251.034C276.822 252.145 278.516 254.121 281.157 255.452C283.798 256.783 286.398 256.961 286.954 255.85Z" fill="white"/>
<path opacity="0.2" d="M282.673 252.433C280.032 251.103 278.338 249.127 278.9 248.016C279.463 246.904 282.049 247.083 284.697 248.414C287.345 249.744 289.032 251.72 288.47 252.831C287.907 253.943 285.321 253.764 282.673 252.433Z" fill="white"/>
<path d="M274.99 249.834L276.506 246.815C277.069 245.704 275.374 243.728 272.733 242.397C270.092 241.066 267.492 240.888 266.936 241.999C266.758 242.356 265.599 244.654 265.42 245.018C264.858 246.122 266.552 248.098 269.193 249.429C271.834 250.76 274.434 250.938 274.99 249.834Z" fill="#1C6DAB"/>
<path opacity="0.1" d="M274.99 249.834L276.506 246.815C277.069 245.704 275.374 243.728 272.733 242.397C270.092 241.066 267.492 240.888 266.936 241.999C266.758 242.356 265.599 244.654 265.42 245.018C264.858 246.122 266.552 248.098 269.193 249.429C271.834 250.76 274.434 250.938 274.99 249.834Z" fill="white"/>
<path opacity="0.2" d="M270.709 246.417C268.068 245.086 266.381 243.104 266.936 241.999C267.492 240.895 270.092 241.066 272.733 242.397C275.374 243.728 277.069 245.704 276.506 246.815C275.944 247.926 273.357 247.741 270.709 246.417Z" fill="white"/>
<path d="M263.932 252.132H233.7C232.627 252.132 231.758 253.001 231.758 254.073V284.305C231.758 285.377 232.627 286.246 233.7 286.246H263.932C265.004 286.246 265.873 285.377 265.873 284.305V254.073C265.873 253.001 265.004 252.132 263.932 252.132Z" fill="#57595C"/>
<path opacity="0.3" d="M263.932 252.132H233.7C232.627 252.132 231.758 253.001 231.758 254.073V284.305C231.758 285.377 232.627 286.246 233.7 286.246H263.932C265.004 286.246 265.873 285.377 265.873 284.305V254.073C265.873 253.001 265.004 252.132 263.932 252.132Z" fill="white"/>
<path opacity="0.2" d="M254.115 252.132H233.7C232.627 252.132 231.758 253.001 231.758 254.073V284.305C231.758 285.377 232.627 286.246 233.7 286.246H254.115C255.187 286.246 256.056 285.377 256.056 284.305V254.073C256.056 253.001 255.187 252.132 254.115 252.132Z" fill="white"/>
<path d="M236.862 257.133H232.78C230.489 257.133 228.63 259.534 228.63 262.49C228.63 265.447 230.489 267.848 232.78 267.848H236.862C239.153 267.848 241.012 265.454 241.012 262.49C241.012 259.527 239.153 257.133 236.862 257.133Z" fill="#57595C"/>
<path opacity="0.2" d="M236.862 257.133H232.78C230.489 257.133 228.63 259.534 228.63 262.49C228.63 265.447 230.489 267.848 232.78 267.848H236.862C239.153 267.848 241.012 265.454 241.012 262.49C241.012 259.527 239.153 257.133 236.862 257.133Z" fill="white"/>
<path opacity="0.2" d="M232.78 267.848C235.073 267.848 236.931 265.449 236.931 262.49C236.931 259.531 235.073 257.133 232.78 257.133C230.488 257.133 228.63 259.531 228.63 262.49C228.63 265.449 230.488 267.848 232.78 267.848Z" fill="white"/>
<path d="M236.862 270.523H232.78C230.489 270.523 228.63 272.924 228.63 275.881C228.63 278.838 230.489 281.239 232.78 281.239H236.862C239.153 281.239 241.012 278.844 241.012 275.881C241.012 272.917 239.153 270.523 236.862 270.523Z" fill="#57595C"/>
<path opacity="0.2" d="M236.862 270.523H232.78C230.489 270.523 228.63 272.924 228.63 275.881C228.63 278.838 230.489 281.239 232.78 281.239H236.862C239.153 281.239 241.012 278.844 241.012 275.881C241.012 272.917 239.153 270.523 236.862 270.523Z" fill="white"/>
<path opacity="0.2" d="M232.78 281.239C235.073 281.239 236.931 278.84 236.931 275.881C236.931 272.922 235.073 270.523 232.78 270.523C230.488 270.523 228.63 272.922 228.63 275.881C228.63 278.84 230.488 281.239 232.78 281.239Z" fill="white"/>
<path d="M249.107 257.133H245.025C242.734 257.133 240.875 259.534 240.875 262.49C240.875 265.447 242.734 267.848 245.025 267.848H249.107C251.398 267.848 253.257 265.454 253.257 262.49C253.257 259.527 251.398 257.133 249.107 257.133Z" fill="#57595C"/>
<path opacity="0.2" d="M249.107 257.133H245.025C242.734 257.133 240.875 259.534 240.875 262.49C240.875 265.447 242.734 267.848 245.025 267.848H249.107C251.398 267.848 253.257 265.454 253.257 262.49C253.257 259.527 251.398 257.133 249.107 257.133Z" fill="white"/>
<path opacity="0.2" d="M245.025 267.848C247.318 267.848 249.176 265.449 249.176 262.49C249.176 259.531 247.318 257.133 245.025 257.133C242.733 257.133 240.875 259.531 240.875 262.49C240.875 265.449 242.733 267.848 245.025 267.848Z" fill="white"/>
<path d="M249.107 270.523H245.025C242.734 270.523 240.875 272.924 240.875 275.881C240.875 278.838 242.734 281.239 245.025 281.239H249.107C251.398 281.239 253.257 278.844 253.257 275.881C253.257 272.917 251.398 270.523 249.107 270.523Z" fill="#57595C"/>
<path opacity="0.2" d="M249.107 270.523H245.025C242.734 270.523 240.875 272.924 240.875 275.881C240.875 278.838 242.734 281.239 245.025 281.239H249.107C251.398 281.239 253.257 278.844 253.257 275.881C253.257 272.917 251.398 270.523 249.107 270.523Z" fill="white"/>
<path opacity="0.2" d="M245.025 281.239C247.318 281.239 249.176 278.84 249.176 275.881C249.176 272.922 247.318 270.523 245.025 270.523C242.733 270.523 240.875 272.922 240.875 275.881C240.875 278.84 242.733 281.239 245.025 281.239Z" fill="white"/>
<path d="M295.741 284.813V263.361C295.741 262.57 295.1 261.928 294.308 261.928H263.06C262.269 261.928 261.627 262.57 261.627 263.361V284.813C261.627 285.605 262.269 286.246 263.06 286.246H294.308C295.1 286.246 295.741 285.605 295.741 284.813Z" fill="#1C6DAB"/>
<path opacity="0.6" d="M295.741 284.813V263.361C295.741 262.57 295.1 261.928 294.308 261.928H263.06C262.269 261.928 261.627 262.57 261.627 263.361V284.813C261.627 285.605 262.269 286.246 263.06 286.246H294.308C295.1 286.246 295.741 285.605 295.741 284.813Z" fill="white"/>
<path opacity="0.2" d="M295.748 273.651V263.355C295.748 262.563 295.106 261.921 294.315 261.921H263.067C262.275 261.921 261.634 262.563 261.634 263.355V273.651C261.634 274.443 262.275 275.085 263.067 275.085H294.315C295.106 275.085 295.748 274.443 295.748 273.651Z" fill="white"/>
<path d="M290.741 263.526V260.151C290.741 258.909 288.346 257.901 285.383 257.901C282.419 257.901 280.025 258.909 280.025 260.151V263.526C280.025 264.768 282.426 265.776 285.383 265.776C288.34 265.776 290.741 264.768 290.741 263.526Z" fill="#1C6DAB"/>
<path opacity="0.5" d="M290.741 263.526V260.151C290.741 258.909 288.346 257.901 285.383 257.901C282.419 257.901 280.025 258.909 280.025 260.151V263.526C280.025 264.768 282.426 265.776 285.383 265.776C288.34 265.776 290.741 264.768 290.741 263.526Z" fill="white"/>
<path opacity="0.2" d="M285.376 262.401C282.419 262.401 280.018 261.393 280.018 260.151C280.018 258.909 282.419 257.901 285.376 257.901C288.333 257.901 290.734 258.909 290.734 260.151C290.734 261.393 288.346 262.401 285.376 262.401Z" fill="white"/>
<path d="M277.35 263.526V260.151C277.35 258.909 274.949 257.901 271.992 257.901C269.035 257.901 266.634 258.909 266.634 260.151V263.526C266.634 264.768 269.035 265.776 271.992 265.776C274.949 265.776 277.35 264.768 277.35 263.526Z" fill="#1C6DAB"/>
<path opacity="0.5" d="M277.35 263.526V260.151C277.35 258.909 274.949 257.901 271.992 257.901C269.035 257.901 266.634 258.909 266.634 260.151V263.526C266.634 264.768 269.035 265.776 271.992 265.776C274.949 265.776 277.35 264.768 277.35 263.526Z" fill="white"/>
<path opacity="0.2" d="M271.992 262.401C269.035 262.401 266.634 261.393 266.634 260.151C266.634 258.909 269.035 257.901 271.992 257.901C274.949 257.901 277.35 258.909 277.35 260.151C277.35 261.393 274.949 262.401 271.992 262.401Z" fill="white"/>
<path d="M290.741 271.326V267.951C290.741 266.709 288.346 265.701 285.383 265.701C282.419 265.701 280.025 266.709 280.025 267.951V271.326C280.025 272.568 282.426 273.576 285.383 273.576C288.34 273.576 290.741 272.568 290.741 271.326Z" fill="#1C6DAB"/>
<path opacity="0.5" d="M290.741 271.326V267.951C290.741 266.709 288.346 265.701 285.383 265.701C282.419 265.701 280.025 266.709 280.025 267.951V271.326C280.025 272.568 282.426 273.576 285.383 273.576C288.34 273.576 290.741 272.568 290.741 271.326Z" fill="white"/>
<path opacity="0.2" d="M285.376 270.201C282.419 270.201 280.018 269.192 280.018 267.951C280.018 266.709 282.419 265.701 285.376 265.701C288.333 265.701 290.734 266.709 290.734 267.951C290.734 269.192 288.346 270.201 285.376 270.201Z" fill="white"/>
<path d="M277.35 271.326V267.951C277.35 266.709 274.949 265.701 271.992 265.701C269.035 265.701 266.634 266.709 266.634 267.951V271.326C266.634 272.568 269.035 273.576 271.992 273.576C274.949 273.576 277.35 272.568 277.35 271.326Z" fill="#1C6DAB"/>
<path opacity="0.5" d="M277.35 271.326V267.951C277.35 266.709 274.949 265.701 271.992 265.701C269.035 265.701 266.634 266.709 266.634 267.951V271.326C266.634 272.568 269.035 273.576 271.992 273.576C274.949 273.576 277.35 272.568 277.35 271.326Z" fill="white"/>
<path opacity="0.2" d="M271.992 270.201C269.035 270.201 266.634 269.192 266.634 267.951C266.634 266.709 269.035 265.701 271.992 265.701C274.949 265.701 277.35 266.709 277.35 267.951C277.35 269.192 274.949 270.201 271.992 270.201Z" fill="white"/>
<path d="M98.2489 282.069V286.246H45.9003V282.069L59.1744 276.814H84.9748L98.2489 282.069Z" fill="#57595C"/>
<path opacity="0.2" d="M98.2489 282.069V282.11H45.9003V282.069L59.1744 276.814H84.9748L98.2489 282.069Z" fill="white"/>
<path d="M71.0079 220.836C74.9181 220.438 73.5804 217.173 75.2131 214.998C76.8457 212.824 80.9137 212.694 81.7232 217.173C82.5327 221.653 81.7232 233.088 71.9477 233.479C62.1722 233.87 61.2118 219.073 61.2118 219.073C61.2118 219.073 64.3537 221.515 71.0079 220.836Z" fill="#1C6DAB"/>
<path opacity="0.5" d="M71.0079 220.836C74.9181 220.438 73.5804 217.173 75.2131 214.998C76.8457 212.824 80.9137 212.694 81.7232 217.173C82.5327 221.653 81.7232 233.088 71.9477 233.479C62.1722 233.87 61.2118 219.073 61.2118 219.073C61.2118 219.073 64.3537 221.515 71.0079 220.836Z" fill="white"/>
<path d="M81.5585 216.467C81.5585 216.467 84.3025 217.036 84.4397 217.839C84.5769 218.641 81.5585 219.307 81.5585 219.307C81.5585 219.307 79.4182 218.326 79.4182 217.88C79.4182 217.434 81.5585 216.467 81.5585 216.467Z" fill="#1C6DAB"/>
<path d="M78.3686 216.782C78.3686 216.907 78.3316 217.029 78.2623 217.133C78.1929 217.236 78.0944 217.317 77.979 217.365C77.8637 217.413 77.7368 217.425 77.6144 217.401C77.492 217.377 77.3795 217.317 77.2913 217.228C77.203 217.14 77.1429 217.028 77.1185 216.905C77.0942 216.783 77.1067 216.656 77.1544 216.541C77.2022 216.425 77.2831 216.327 77.3869 216.257C77.4907 216.188 77.6127 216.151 77.7375 216.151C77.9049 216.151 78.0654 216.217 78.1838 216.336C78.3021 216.454 78.3686 216.615 78.3686 216.782Z" fill="#1C6DAB"/>
<path d="M89.7563 279.647H54.1528C53.1169 279.644 52.1244 279.23 51.3919 278.498C50.6594 277.765 50.2463 276.773 50.2426 275.737C50.2463 274.701 50.6594 273.709 51.3919 272.976C52.1244 272.243 53.1169 271.83 54.1528 271.827H89.7563C90.7922 271.83 91.7847 272.243 92.5172 272.976C93.2497 273.709 93.6628 274.701 93.6665 275.737C93.6628 276.773 93.2497 277.765 92.5172 278.498C91.7847 279.23 90.7922 279.644 89.7563 279.647Z" fill="#1C6DAB"/>
<path d="M87.0054 271.84H56.8969C55.8609 271.837 54.8684 271.424 54.1359 270.691C53.4034 269.959 52.9903 268.966 52.9866 267.93C52.9885 266.894 53.401 265.9 54.1339 265.167C54.8668 264.434 55.8604 264.022 56.8969 264.02H87.0054C88.0419 264.022 89.0354 264.434 89.7683 265.167C90.5012 265.9 90.9138 266.894 90.9156 267.93C90.912 268.966 90.4989 269.959 89.7663 270.691C89.0338 271.424 88.0413 271.837 87.0054 271.84Z" fill="#57595C"/>
<path d="M84.2545 264.027H59.6408C58.6055 264.025 57.613 263.613 56.8803 262.882C56.1476 262.151 55.7343 261.159 55.7306 260.124C55.7325 259.087 56.145 258.094 56.8779 257.361C57.6108 256.628 58.6043 256.215 59.6408 256.213H84.2545C85.291 256.215 86.2845 256.628 87.0174 257.361C87.7504 258.094 88.1629 259.087 88.1647 260.124C88.1611 261.159 87.7478 262.151 87.015 262.882C86.2823 263.613 85.2898 264.025 84.2545 264.027Z" fill="#1C6DAB"/>
<path d="M81.5105 256.22H62.378C61.3427 256.218 60.3502 255.807 59.6175 255.075C58.8848 254.344 58.4714 253.352 58.4678 252.317C58.4714 251.281 58.8845 250.288 59.6171 249.556C60.3496 248.823 61.3421 248.41 62.378 248.407H81.5105C82.5465 248.41 83.5389 248.823 84.2715 249.556C85.004 250.288 85.4171 251.281 85.4207 252.317C85.4171 253.352 85.0038 254.344 84.271 255.075C83.5383 255.807 82.5458 256.218 81.5105 256.22Z" fill="#57595C"/>
<path d="M78.7597 248.414H65.122C64.0861 248.41 63.0936 247.997 62.3611 247.264C61.6285 246.532 61.2154 245.539 61.2118 244.503C61.2154 243.468 61.6288 242.476 62.3615 241.745C63.0942 241.013 64.0867 240.602 65.122 240.6H78.7597C79.795 240.602 80.7875 241.013 81.5202 241.745C82.2529 242.476 82.6662 243.468 82.6699 244.503C82.6663 245.539 82.2531 246.532 81.5206 247.264C80.7881 247.997 79.7956 248.41 78.7597 248.414Z" fill="#1C6DAB"/>
<path d="M76.0088 240.6H67.866C66.8295 240.598 65.836 240.186 65.1031 239.453C64.3701 238.72 63.9576 237.726 63.9558 236.69C63.9594 235.654 64.3725 234.661 65.105 233.929C65.8376 233.196 66.83 232.783 67.866 232.78H76.0088C77.0447 232.783 78.0372 233.196 78.7697 233.929C79.5023 234.661 79.9154 235.654 79.919 236.69C79.9172 237.726 79.5046 238.72 78.7717 239.453C78.0388 240.186 77.0453 240.598 76.0088 240.6Z" fill="#57595C"/>
<path opacity="0.2" d="M87.0054 271.84H56.8969C55.8609 271.837 54.8684 271.424 54.1359 270.691C53.4034 269.959 52.9903 268.966 52.9866 267.93C52.9885 266.894 53.401 265.9 54.1339 265.167C54.8668 264.434 55.8604 264.022 56.8969 264.02H87.0054C88.0419 264.022 89.0354 264.434 89.7683 265.167C90.5012 265.9 90.9138 266.894 90.9156 267.93C90.912 268.966 90.4989 269.959 89.7663 270.691C89.0338 271.424 88.0413 271.837 87.0054 271.84Z" fill="white"/>
<path opacity="0.2" d="M84.2545 264.027H59.6408C58.6055 264.025 57.613 263.613 56.8803 262.882C56.1476 262.151 55.7343 261.159 55.7306 260.124C55.7325 259.087 56.145 258.094 56.8779 257.361C57.6108 256.628 58.6043 256.215 59.6408 256.213H84.2545C85.291 256.215 86.2845 256.628 87.0174 257.361C87.7504 258.094 88.1629 259.087 88.1647 260.124C88.1611 261.159 87.7478 262.151 87.015 262.882C86.2823 263.613 85.2898 264.025 84.2545 264.027Z" fill="white"/>
<path opacity="0.4" d="M81.5105 256.22H62.378C61.3427 256.218 60.3502 255.807 59.6175 255.075C58.8848 254.344 58.4714 253.352 58.4678 252.317C58.4714 251.281 58.8845 250.288 59.6171 249.556C60.3496 248.823 61.3421 248.41 62.378 248.407H81.5105C82.5465 248.41 83.5389 248.823 84.2715 249.556C85.004 250.288 85.4171 251.281 85.4207 252.317C85.4171 253.352 85.0038 254.344 84.271 255.075C83.5383 255.807 82.5458 256.218 81.5105 256.22Z" fill="white"/>
<path opacity="0.4" d="M78.7597 248.414H65.122C64.0861 248.41 63.0936 247.997 62.3611 247.264C61.6285 246.532 61.2154 245.539 61.2118 244.503C61.2154 243.468 61.6288 242.476 62.3615 241.745C63.0942 241.013 64.0867 240.602 65.122 240.6H78.7597C79.795 240.602 80.7875 241.013 81.5202 241.745C82.2529 242.476 82.6662 243.468 82.6699 244.503C82.6663 245.539 82.2531 246.532 81.5206 247.264C80.7881 247.997 79.7956 248.41 78.7597 248.414Z" fill="white"/>
<path opacity="0.6" d="M76.0088 240.6H67.866C66.8295 240.598 65.836 240.186 65.1031 239.453C64.3701 238.72 63.9576 237.726 63.9558 236.69C63.9594 235.654 64.3725 234.661 65.105 233.929C65.8376 233.196 66.83 232.783 67.866 232.78H76.0088C77.0447 232.783 78.0372 233.196 78.7697 233.929C79.5023 234.661 79.9154 235.654 79.919 236.69C79.9172 237.726 79.5046 238.72 78.7717 239.453C78.0388 240.186 77.0453 240.598 76.0088 240.6Z" fill="white"/>
<path d="M106.399 95.5384L131.781 90.0504C132.806 89.8274 133.865 89.8087 134.897 89.9952C135.93 90.1818 136.915 90.57 137.798 91.1376C138.68 91.7053 139.442 92.4412 140.04 93.3035C140.638 94.1657 141.06 95.1373 141.282 96.1627L146.084 118.231C146.525 120.302 146.126 122.463 144.975 124.239C143.824 126.016 142.014 127.262 139.944 127.705L136.102 128.542L138.497 135.32L130.8 129.694L114.589 133.22C113.564 133.443 112.504 133.462 111.471 133.276C110.438 133.089 109.452 132.701 108.569 132.134C107.687 131.566 106.924 130.83 106.326 129.968C105.727 129.106 105.304 128.134 105.081 127.108L100.279 105.046C100.056 104.02 100.038 102.96 100.225 101.927C100.412 100.894 100.8 99.9074 101.369 99.0244C101.937 98.1414 102.674 97.379 103.537 96.7809C104.4 96.1827 105.372 95.7605 106.399 95.5384Z" fill="#1C6DAB"/>
<path opacity="0.7" d="M106.399 95.5384L131.781 90.0504C132.806 89.8274 133.865 89.8087 134.897 89.9952C135.93 90.1818 136.915 90.57 137.798 91.1376C138.68 91.7053 139.442 92.4412 140.04 93.3035C140.638 94.1657 141.06 95.1373 141.282 96.1627L146.084 118.231C146.525 120.302 146.126 122.463 144.975 124.239C143.824 126.016 142.014 127.262 139.944 127.705L136.102 128.542L138.497 135.32L130.8 129.694L114.589 133.22C113.564 133.443 112.504 133.462 111.471 133.276C110.438 133.089 109.452 132.701 108.569 132.134C107.687 131.566 106.924 130.83 106.326 129.968C105.727 129.106 105.304 128.134 105.081 127.108L100.279 105.046C100.056 104.02 100.038 102.96 100.225 101.927C100.412 100.894 100.8 99.9074 101.369 99.0244C101.937 98.1414 102.674 97.379 103.537 96.7809C104.4 96.1827 105.372 95.7605 106.399 95.5384Z" fill="white"/>
<path d="M122.204 107.152C115.961 102.961 110.727 106.384 111.845 111.543C112.964 116.702 125.325 121.49 125.325 121.49C125.325 121.49 134.573 112.002 133.454 106.844C132.336 101.685 126.149 100.745 122.204 107.152Z" fill="#1C6DAB"/>
<path d="M159.625 174.017C159.008 174.435 158.487 174.758 157.91 175.101C157.334 175.444 156.772 175.787 156.195 176.075C155.043 176.706 153.863 177.289 152.642 177.845C151.421 178.4 150.172 178.929 148.841 179.409C147.416 179.928 145.958 180.357 144.478 180.692C143.53 180.904 142.567 181.047 141.597 181.117C141.103 181.117 140.623 181.117 140.15 181.117L138.874 181C137.395 180.797 135.937 180.462 134.518 179.999C133.213 179.573 131.934 179.069 130.69 178.49C129.445 177.917 128.244 177.254 127.095 176.507C126.455 176.091 125.958 175.488 125.672 174.779C125.387 174.071 125.325 173.292 125.497 172.548C125.668 171.804 126.064 171.131 126.631 170.619C127.198 170.108 127.908 169.783 128.666 169.688H128.961C131.362 169.4 133.825 169.352 136.034 169.146C137.046 169.08 138.053 168.959 139.052 168.783L139.622 168.645L140.019 168.495C140.249 168.345 140.492 168.219 140.747 168.117C141.467 167.774 142.379 167.301 143.305 166.793C144.231 166.286 145.212 165.744 146.187 165.174L149.164 163.459L150.666 162.609C151.16 162.334 151.702 162.039 152.141 161.813L152.347 161.71C153.978 160.855 155.875 160.659 157.646 161.164C159.417 161.668 160.926 162.834 161.861 164.421C162.797 166.007 163.086 167.892 162.67 169.686C162.253 171.48 161.163 173.045 159.625 174.058V174.017Z" fill="#F7A9A0"/>
<path opacity="0.1" d="M159.625 174.017C159.008 174.435 158.487 174.758 157.91 175.101C157.334 175.444 156.772 175.787 156.195 176.075C155.043 176.706 153.863 177.289 152.642 177.845C151.421 178.4 150.172 178.929 148.841 179.409C147.416 179.928 145.958 180.357 144.478 180.692C143.53 180.904 142.567 181.047 141.597 181.117C141.103 181.117 140.623 181.117 140.15 181.117L138.874 181C137.395 180.797 135.937 180.462 134.518 179.999C133.213 179.573 131.934 179.069 130.69 178.49C129.445 177.917 128.244 177.254 127.095 176.507C126.455 176.091 125.958 175.488 125.672 174.779C125.387 174.071 125.325 173.292 125.497 172.548C125.668 171.804 126.064 171.131 126.631 170.619C127.198 170.108 127.908 169.783 128.666 169.688H128.961C131.362 169.4 133.825 169.352 136.034 169.146C137.046 169.08 138.053 168.959 139.052 168.783L139.622 168.645L140.019 168.495C140.249 168.345 140.492 168.219 140.747 168.117C141.467 167.774 142.379 167.301 143.305 166.793C144.231 166.286 145.212 165.744 146.187 165.174L149.164 163.459L150.666 162.609C151.16 162.334 151.702 162.039 152.141 161.813L152.347 161.71C153.978 160.855 155.875 160.659 157.646 161.164C159.417 161.668 160.926 162.834 161.861 164.421C162.797 166.007 163.086 167.892 162.67 169.686C162.253 171.48 161.163 173.045 159.625 174.058V174.017Z" fill="#02080D"/>
<path d="M126.588 162.176L127.706 163.72C127.706 163.72 132.172 168.652 132.871 173.694L131.726 174.38C130.817 174.925 129.791 175.244 128.733 175.311C127.676 175.378 126.618 175.191 125.648 174.765L123.789 173.955L120.722 172.583C120.203 172.354 119.746 172.005 119.388 171.565C119.03 171.125 118.782 170.607 118.664 170.052L118.04 167.054C117.898 166.408 117.945 165.735 118.176 165.116C118.407 164.496 118.813 163.957 119.343 163.562L122.177 161.573L122.444 161.388C122.767 161.165 123.131 161.008 123.515 160.928C123.899 160.847 124.295 160.843 124.681 160.916C125.066 160.989 125.433 161.139 125.761 161.355C126.088 161.571 126.369 161.851 126.588 162.176Z" fill="#F7A9A0"/>
<path d="M150.995 177.152L142.002 164.735C142.002 164.735 156.168 156.503 161.711 162.849C167.254 169.194 150.995 177.152 150.995 177.152Z" fill="#1C6DAB"/>
<path opacity="0.5" d="M156.916 173.564C155.037 174.91 153.058 176.11 150.995 177.152L148.375 173.523L142.002 164.735C142.002 164.735 156.168 156.503 161.718 162.849C164.921 166.512 160.908 170.676 156.916 173.564Z" fill="white"/>
<path opacity="0.1" d="M156.916 173.564C155.037 174.91 153.058 176.11 150.995 177.152L148.375 173.523C149.925 170.96 151.92 168.695 154.268 166.834C155.7 168.821 156.61 171.135 156.916 173.564Z" fill="#02080D"/>
<path opacity="0.1" d="M126.588 162.176L127.706 163.72C127.706 163.72 132.172 168.652 132.871 173.694L131.726 174.38C130.817 174.925 129.791 175.244 128.733 175.311C127.676 175.378 126.618 175.191 125.648 174.765L123.789 173.955L120.722 172.583C120.203 172.354 119.746 172.005 119.388 171.565C119.03 171.125 118.782 170.607 118.664 170.052L118.04 167.054C117.898 166.408 117.945 165.735 118.176 165.116C118.407 164.496 118.813 163.957 119.343 163.562L122.177 161.573L122.444 161.388C122.767 161.165 123.131 161.008 123.515 160.928C123.899 160.847 124.295 160.843 124.681 160.916C125.066 160.989 125.433 161.139 125.761 161.355C126.088 161.571 126.369 161.851 126.588 162.176Z" fill="#02080D"/>
<path d="M120.297 246.836C120.297 246.836 112.408 222.826 124.729 210.354C137.049 197.883 202.205 207.226 202.205 207.226L197.966 235.86C197.966 235.86 146.804 226.311 142.757 228.526C138.709 230.742 135.423 252.358 135.423 252.358L120.297 246.836Z" fill="#F7A9A0"/>
<path d="M132.981 206.238C132.981 206.238 139.224 221.975 142.757 228.526C144.924 232.553 168.029 234.33 185.515 235.098C188.537 235.229 191.547 234.631 194.289 233.354C197.031 232.076 199.425 230.158 201.27 227.76C203.114 225.362 204.354 222.555 204.884 219.577C205.415 216.599 205.221 213.537 204.318 210.649C203.335 207.512 201.952 204.515 200.202 201.731C200.202 201.731 148.176 202.369 132.981 206.238Z" fill="#57595C"/>
<path d="M131.259 249.422C131.259 249.422 132.172 256.968 128.241 259.335C124.31 261.701 119.323 257.098 114.857 254.766C110.391 252.433 104.732 251.082 105.788 246.294C106.844 241.506 110.858 249.607 119.556 245.786L131.259 249.422Z" fill="#F7A9A0"/>
<path d="M110.947 265.454C110.947 265.454 107.393 278.22 110.947 282.72C112.538 284.737 121.923 285.348 124.221 283.839C128.742 280.882 127.479 267.896 127.479 267.896L110.947 265.454Z" fill="#57595C"/>
<path d="M225.893 271.875C225.893 271.875 146.475 280.182 101.727 271.875C101.727 271.875 102.982 261.351 105.665 255.274C106.008 254.477 106.421 253.713 106.899 252.989C107.99 251.586 109.401 250.466 111.015 249.724C111.413 249.518 111.818 249.326 112.236 249.148C115.983 247.623 119.898 246.552 123.898 245.958C123.898 245.958 128.536 231.346 132.816 225.707C133.214 225.161 133.674 224.663 134.188 224.225C138.798 220.432 195.242 223.004 202.981 228.437C204.792 229.706 206.781 232.327 208.613 235.222C211.008 239.11 213.162 243.142 215.061 247.295C215.061 247.295 223.979 247.357 226.037 253.723C228.095 260.089 225.893 271.875 225.893 271.875Z" fill="#1C6DAB"/>
<path d="M126.121 246.088C142.175 245.654 158.241 246.112 174.244 247.46C174.244 247.46 175.095 236.189 174.882 234.68C174.669 233.171 152.148 229.459 152.148 229.459C152.148 229.459 148.354 226.379 146.722 225.028C145.089 223.676 133.688 227.737 133.688 227.737C133.688 227.737 128.021 237.808 126.121 246.088Z" fill="white"/>
<path d="M160.709 241.409C160.642 241.71 160.491 241.985 160.274 242.203C160.058 242.422 159.784 242.574 159.484 242.643C159.184 242.713 158.871 242.696 158.58 242.595C158.289 242.494 158.033 242.313 157.841 242.073C157.649 241.832 157.528 241.543 157.494 241.237C157.459 240.931 157.511 240.622 157.645 240.345C157.778 240.067 157.987 239.834 158.248 239.67C158.508 239.506 158.81 239.42 159.118 239.42C159.59 239.479 160.021 239.719 160.318 240.091C160.615 240.463 160.756 240.936 160.709 241.409Z" fill="#57595C"/>
<path d="M138.298 240.6C138.23 240.9 138.08 241.175 137.863 241.394C137.646 241.612 137.372 241.765 137.072 241.834C136.772 241.903 136.459 241.886 136.168 241.786C135.878 241.685 135.622 241.503 135.429 241.263C135.237 241.023 135.117 240.733 135.082 240.428C135.047 240.122 135.1 239.812 135.233 239.535C135.367 239.258 135.576 239.024 135.836 238.86C136.097 238.697 136.398 238.61 136.706 238.611C137.178 238.669 137.609 238.91 137.906 239.282C138.204 239.653 138.344 240.126 138.298 240.6Z" fill="#57595C"/>
<path d="M153.143 258.621C152.969 259.045 152.765 259.455 152.532 259.849C151.944 260.874 151.255 261.837 150.474 262.724C147.456 266.222 141.453 270.667 130.539 270.441C125.943 270.345 122.526 269.522 119.988 268.349C112.627 264.953 112.627 258.621 112.627 258.621C112.627 258.621 113.464 258.882 114.987 259.232C127.579 262.007 140.646 261.798 153.143 258.621Z" fill="#57595C"/>
<path d="M150.488 262.724C147.469 266.222 141.467 270.667 130.553 270.441C125.956 270.345 122.54 269.522 120.002 268.349C129.466 263.745 140.004 261.801 150.488 262.724Z" fill="#DC897C"/>
<path d="M153.143 258.621C152.969 259.045 152.765 259.455 152.532 259.849C133.653 265.077 115.001 260.618 115.001 260.618V259.246C127.59 262.014 140.651 261.8 153.143 258.621Z" fill="white"/>
<path d="M176.158 285.979C180.651 285.979 184.294 281.056 184.294 274.982C184.294 268.909 180.651 263.986 176.158 263.986C171.665 263.986 168.022 268.909 168.022 274.982C168.022 281.056 171.665 285.979 176.158 285.979Z" fill="#57595C"/>
<path opacity="0.2" d="M177.907 281.204C180.627 281.204 182.833 278.225 182.833 274.55C182.833 270.875 180.627 267.896 177.907 267.896C175.187 267.896 172.982 270.875 172.982 274.55C172.982 278.225 175.187 281.204 177.907 281.204Z" fill="white"/>
<path d="M168.111 273.363C167.048 275.421 160.709 275.531 160.709 275.531C160.709 275.531 161.032 281.753 164.921 284.449C168.811 287.145 176.158 285.965 176.158 285.965L168.111 273.363Z" fill="#57595C"/>
<path d="M213.785 284.23C218.278 284.23 221.921 279.306 221.921 273.233C221.921 267.16 218.278 262.236 213.785 262.236C209.292 262.236 205.649 267.16 205.649 273.233C205.649 279.306 209.292 284.23 213.785 284.23Z" fill="#57595C"/>
<path opacity="0.2" d="M215.534 279.455C218.255 279.455 220.46 276.476 220.46 272.801C220.46 269.126 218.255 266.147 215.534 266.147C212.814 266.147 210.609 269.126 210.609 272.801C210.609 276.476 212.814 279.455 215.534 279.455Z" fill="white"/>
<path d="M205.745 271.614C204.675 273.672 198.343 273.775 198.343 273.775C198.343 273.775 198.666 279.997 202.555 282.693C206.445 285.389 213.785 284.209 213.785 284.209L205.745 271.614Z" fill="#57595C"/>
<path d="M102.482 266.826L100.156 268.884C100.156 268.884 101 278.522 102.482 278.989C103.963 279.455 148.773 282.727 153.143 282.178C157.512 281.63 163.028 280.12 164.338 279.16C165.648 278.2 164.338 270.42 164.338 270.42C164.338 270.42 149.932 273 139.779 272.787C129.627 272.574 106.488 272.417 104.862 270.42C103.937 269.314 103.139 268.109 102.482 266.826Z" fill="#1C6DAB"/>
<path opacity="0.7" d="M164.921 250.478C164.523 250.41 156.381 252.399 155.159 253.709C153.938 255.02 157.526 261.345 157.526 261.345C157.526 261.345 159.008 262.236 159.118 261.345C159.227 260.453 163.151 254.073 164.921 252.852C166.691 251.631 164.921 250.478 164.921 250.478Z" fill="white"/>
<path opacity="0.7" d="M109.369 259.424H107.469L105.644 255.274C105.987 254.477 106.401 253.713 106.879 252.989C107.969 251.586 109.381 250.466 110.995 249.724C110.995 249.724 108.896 256.234 109.369 259.424Z" fill="white"/>
<path opacity="0.2" d="M174.155 248.146C157.602 248.907 150.488 256.014 150.488 256.014C150.488 256.014 112.147 255.939 111.605 253.682C111.242 252.187 111.811 250.252 112.236 249.113C115.983 247.589 119.898 246.518 123.898 245.923C118.356 247.707 117.834 249.69 117.834 249.69C119.35 247.92 124.461 246.849 124.461 246.849C138.572 245.923 174.155 248.146 174.155 248.146Z" fill="white"/>
<path opacity="0.2" d="M208.688 235.208C205.072 233.473 201.202 232.327 197.225 231.812C187.319 230.728 178.36 232.896 177.139 232.629C175.918 232.361 153.129 227.47 153.129 227.47C153.129 227.47 149.013 223.265 147.545 222.86C146.077 222.455 135.471 224.76 132.878 225.693C133.276 225.147 133.736 224.65 134.25 224.211C138.86 220.418 195.304 222.99 203.042 228.423C204.867 229.693 206.856 232.313 208.688 235.208Z" fill="white"/>
<path d="M177.907 246.774C177.907 246.774 177.955 236.162 178.772 235.434C179.588 234.707 189.864 234.33 191.12 234.748C192.375 235.167 194.646 246.774 194.646 246.774H177.907Z" fill="white"/>
<path d="M197.225 246.774L194.138 234.687C194.138 234.687 206.212 234.577 207.172 236.114C208.132 237.65 213.826 247.467 213.826 247.467L197.225 246.774Z" fill="white"/>
<path opacity="0.7" d="M102.482 266.826L100.156 268.884C100.156 268.884 101 278.522 102.482 278.989C103.963 279.455 148.773 282.727 153.143 282.178C157.512 281.63 163.028 280.12 164.338 279.16C165.648 278.2 164.338 270.42 164.338 270.42C164.338 270.42 149.932 273 139.779 272.787C129.627 272.574 106.488 272.417 104.862 270.42C103.937 269.314 103.139 268.109 102.482 266.826Z" fill="white"/>
<path opacity="0.2" d="M148.512 275.572L149.459 279.805L141.048 279.455V276.876L148.512 275.572Z" fill="#02080D"/>
<path opacity="0.2" d="M103.991 272.801L109.698 274.982V277.685L103.991 276.876V272.801Z" fill="#02080D"/>
<path opacity="0.2" d="M147.03 278.968C147.731 278.968 148.299 278.4 148.299 277.699C148.299 276.998 147.731 276.43 147.03 276.43C146.329 276.43 145.761 276.998 145.761 277.699C145.761 278.4 146.329 278.968 147.03 278.968Z" fill="white"/>
<path opacity="0.2" d="M105.637 276.334C106.338 276.334 106.906 275.766 106.906 275.065C106.906 274.364 106.338 273.796 105.637 273.796C104.936 273.796 104.368 274.364 104.368 275.065C104.368 275.766 104.936 276.334 105.637 276.334Z" fill="white"/>
<path opacity="0.2" d="M143.909 277.699C143.91 277.915 143.848 278.126 143.729 278.307C143.61 278.487 143.44 278.628 143.241 278.711C143.041 278.795 142.822 278.818 142.61 278.776C142.398 278.735 142.203 278.632 142.05 278.479C141.896 278.327 141.792 278.133 141.749 277.921C141.706 277.709 141.728 277.49 141.81 277.29C141.892 277.09 142.032 276.919 142.212 276.799C142.391 276.679 142.602 276.615 142.818 276.615C143.106 276.615 143.383 276.729 143.587 276.932C143.792 277.135 143.907 277.411 143.909 277.699Z" fill="white"/>
<path opacity="0.2" d="M109.41 276.066C109.411 276.283 109.348 276.494 109.229 276.675C109.11 276.855 108.94 276.996 108.74 277.079C108.54 277.163 108.321 277.185 108.108 277.143C107.896 277.101 107.701 276.997 107.548 276.844C107.395 276.691 107.291 276.496 107.249 276.284C107.207 276.072 107.23 275.852 107.313 275.652C107.396 275.453 107.537 275.283 107.718 275.163C107.898 275.044 108.11 274.981 108.326 274.982C108.613 274.984 108.888 275.099 109.091 275.302C109.294 275.505 109.408 275.779 109.41 276.066Z" fill="white"/>
<path d="M158.699 258.21C159.942 258.21 160.949 257.202 160.949 255.96C160.949 254.717 159.942 253.709 158.699 253.709C157.457 253.709 156.449 254.717 156.449 255.96C156.449 257.202 157.457 258.21 158.699 258.21Z" fill="white"/>
<path d="M109.451 255.946C109.095 257.133 108.265 257.935 107.599 257.736C106.934 257.537 106.68 256.412 107.037 255.219C107.393 254.025 108.223 253.229 108.889 253.428C109.554 253.627 109.808 254.752 109.451 255.946Z" fill="white"/>
<path d="M163.268 253.312C163.268 253.561 163.194 253.805 163.055 254.013C162.917 254.22 162.719 254.382 162.489 254.478C162.258 254.573 162.004 254.598 161.76 254.55C161.515 254.501 161.29 254.381 161.113 254.204C160.937 254.028 160.816 253.803 160.768 253.558C160.719 253.313 160.744 253.059 160.84 252.829C160.935 252.598 161.097 252.401 161.305 252.262C161.512 252.123 161.756 252.049 162.006 252.049C162.341 252.049 162.662 252.182 162.898 252.419C163.135 252.656 163.268 252.977 163.268 253.312Z" fill="white"/>
<path d="M109.938 252.187C109.568 252.776 108.999 253.085 108.669 252.873C108.34 252.66 108.374 252.022 108.745 251.432C109.115 250.842 109.685 250.533 110.014 250.746C110.343 250.959 110.309 251.576 109.938 252.187Z" fill="white"/>
<path d="M188.437 231.579C183.519 231.332 174.155 228.115 171.973 220.692C167.857 206.568 200.387 201.354 203.927 209.517C208.969 221.124 204.298 232.368 188.437 231.579Z" fill="#57595C"/>
<path d="M203.632 247.913C203.632 247.913 209.703 252.488 208.674 256.961C207.645 261.434 200.868 261.838 196.1 263.423C191.332 265.008 186.427 268.163 183.704 264.109C180.981 260.055 189.61 262.737 192.896 253.819L203.632 247.913Z" fill="#F7A9A0"/>
<path d="M192.869 254.375C192.869 254.375 161.821 223.258 175.444 213.338C189.892 202.808 200.923 236.1 205.32 251.699L192.869 254.375Z" fill="#F7A9A0"/>
<path d="M148.375 168.097C146.427 160.859 140.074 157.69 132.261 158.424C128.982 158.733 118.184 163.644 119.103 176.068C119.892 186.66 131.63 192.017 140.157 188.039C148.684 184.06 150.323 175.341 148.375 168.097ZM140.582 174.058C140.463 176.001 139.672 177.842 138.344 179.265C137.016 180.688 135.234 181.605 133.304 181.858C129.729 182.208 124.763 176.281 129.38 169.201C130.93 166.821 134.401 166.244 136.459 166.862C138.517 167.479 140.788 169.818 140.582 174.058Z" fill="#57595C"/>
<path opacity="0.2" d="M148.375 168.097C146.427 160.859 140.074 157.69 132.261 158.424C128.982 158.733 118.184 163.644 119.103 176.068C119.892 186.66 131.63 192.017 140.157 188.039C148.684 184.06 150.323 175.341 148.375 168.097ZM140.582 174.058C140.463 176.001 139.672 177.842 138.344 179.265C137.016 180.688 135.234 181.605 133.304 181.858C129.729 182.208 124.763 176.281 129.38 169.201C130.93 166.821 134.401 166.244 136.459 166.862C138.517 167.479 140.788 169.818 140.582 174.058Z" fill="white"/>
<path d="M147.072 176.624C146.984 176.19 146.933 175.749 146.921 175.307C146.969 174.621 147.435 173.989 147.353 173.303C147.226 172.86 147.073 172.425 146.893 172C146.739 171.406 146.739 170.783 146.893 170.189C147.049 169.827 147.133 169.438 147.14 169.043C147.102 168.829 147.022 168.625 146.904 168.443C146.787 168.26 146.633 168.103 146.454 167.98C145.912 167.541 145.521 167.424 145.418 166.608C145.37 166.265 145.37 165.922 145.315 165.579C145.297 165.426 145.25 165.277 145.178 165.14C144.876 164.619 144.28 164.536 144.094 163.919C143.978 163.562 143.957 163.192 143.82 162.856C141.666 160.496 138.753 158.967 135.588 158.534C134.847 158.43 134.099 158.391 133.352 158.417C131.849 158.698 130.107 159.103 128.495 159.487C126.017 160.579 123.866 162.297 122.254 164.471C120.641 166.646 119.621 169.203 119.295 171.89C119.022 173.925 119.129 175.993 119.611 177.989C120.414 179.011 121.36 179.759 121.58 181.247C121.582 181.648 121.691 182.041 121.895 182.386C122.231 182.811 122.863 182.784 123.267 183.072C123.816 183.449 123.953 184.225 124.255 184.828C124.763 185.795 125.627 185.768 126.354 186.399C126.893 187.025 127.647 187.426 128.467 187.524C128.85 187.459 129.243 187.507 129.599 187.661C129.959 187.943 130.372 188.148 130.813 188.265C131.049 188.272 131.284 188.225 131.499 188.128C131.716 188.034 131.949 187.983 132.185 187.977C132.528 187.977 132.926 188.382 133.262 188.533C133.518 188.681 133.804 188.773 134.098 188.801C134.393 188.83 134.691 188.794 134.97 188.697C135.526 188.409 135.862 187.785 136.425 187.51C136.829 187.344 137.264 187.269 137.701 187.291C138.164 187.312 138.626 187.239 139.06 187.076C139.494 186.913 139.89 186.664 140.225 186.344C140.354 186.165 140.499 185.997 140.657 185.843C140.929 185.637 141.243 185.491 141.577 185.418C141.943 185.321 142.28 185.135 142.558 184.876C142.888 184.414 143.132 183.896 143.278 183.346C143.358 183.127 143.488 182.929 143.659 182.77C143.829 182.61 144.035 182.493 144.259 182.427C144.623 182.331 144.849 182.379 145.089 181.988C145.528 181.268 145.336 180.273 145.775 179.525C146.344 178.538 147.195 178.009 147.072 176.624ZM137.2 180.554C136.72 181.117 136.308 181.24 135.615 182.057C135.431 182.337 135.165 182.553 134.853 182.676C134.541 182.799 134.199 182.822 133.873 182.743C133.468 182.66 133.105 182.647 132.72 182.606C132.336 182.564 131.966 182.105 131.554 181.92C131.092 181.758 130.591 181.744 130.12 181.878C129.887 181.944 129.642 181.955 129.404 181.91C129.166 181.864 128.941 181.764 128.748 181.618C128.562 181.372 128.396 181.11 128.255 180.836C127.795 180.15 126.924 179.882 126.416 179.224C126.416 178.99 125.73 178.167 125.661 177.852C125.603 177.281 125.647 176.705 125.792 176.15C125.816 176.056 125.816 175.957 125.792 175.862C125.742 175.77 125.672 175.69 125.586 175.629C125.272 175.334 125.053 174.951 124.957 174.531C124.862 174.11 124.894 173.671 125.051 173.269C125.222 172.851 125.524 172.508 125.737 172.103C126.203 171.225 125.826 169.613 126.546 168.927C126.75 168.787 126.966 168.665 127.191 168.563C127.809 168.152 127.809 167.15 128.371 166.656C128.592 166.476 128.857 166.359 129.139 166.32C129.825 166.19 130.429 166.423 131.04 166.176C131.581 165.927 132.1 165.63 132.59 165.291C132.967 165.001 133.432 164.851 133.907 164.866C134.394 164.948 134.772 165.38 135.279 165.462C135.787 165.545 136.109 165.353 136.5 165.462C137.152 165.62 137.227 166.238 137.55 166.732C137.912 167.177 138.385 167.52 138.922 167.726C139.855 168.138 141.069 168.275 140.74 169.647C140.623 170.12 140.5 170.546 140.41 170.978C140.858 172.227 140.997 173.566 140.815 174.881C140.657 176.031 140.252 177.134 139.628 178.113C139.004 179.092 138.176 179.925 137.2 180.554Z" fill="#1C6DAB"/>
<g opacity="0.5">
<path d="M122.033 171.684C121.999 171.68 121.966 171.668 121.938 171.648C121.909 171.629 121.885 171.604 121.868 171.575L121.237 170.525C121.201 170.468 121.189 170.399 121.201 170.333C121.214 170.267 121.251 170.208 121.305 170.168C121.332 170.151 121.362 170.139 121.394 170.133C121.426 170.127 121.458 170.128 121.489 170.135C121.521 170.142 121.55 170.155 121.576 170.174C121.603 170.193 121.625 170.216 121.642 170.244L122.273 171.287C122.306 171.345 122.317 171.414 122.303 171.479C122.289 171.545 122.251 171.603 122.197 171.643C122.149 171.677 122.091 171.691 122.033 171.684Z" fill="white"/>
<path d="M123.041 168.741H122.993C122.454 168.548 121.945 168.278 121.484 167.939C121.431 167.898 121.395 167.839 121.383 167.773C121.372 167.706 121.386 167.639 121.422 167.582C121.439 167.555 121.461 167.531 121.487 167.512C121.514 167.494 121.543 167.481 121.575 167.474C121.607 167.468 121.639 167.468 121.671 167.475C121.702 167.481 121.732 167.495 121.758 167.514C122.178 167.825 122.64 168.074 123.13 168.254C123.191 168.282 123.239 168.33 123.266 168.391C123.292 168.452 123.295 168.521 123.274 168.584C123.256 168.631 123.224 168.671 123.182 168.699C123.141 168.727 123.091 168.742 123.041 168.741Z" fill="white"/>
<path d="M124.852 167.123C124.805 167.116 124.762 167.095 124.729 167.061C124.682 167.013 124.655 166.949 124.655 166.882C124.655 166.816 124.682 166.752 124.729 166.704L125.806 165.408C125.827 165.384 125.853 165.365 125.882 165.352C125.911 165.339 125.942 165.333 125.974 165.333C126.005 165.333 126.037 165.339 126.066 165.352C126.095 165.365 126.12 165.384 126.142 165.408C126.187 165.457 126.213 165.522 126.213 165.589C126.213 165.657 126.187 165.722 126.142 165.771L125.065 167.068C125.037 167.095 125.003 167.114 124.966 167.124C124.928 167.133 124.889 167.133 124.852 167.123Z" fill="white"/>
<path d="M123.61 166.402C123.563 166.396 123.519 166.375 123.484 166.343C123.448 166.312 123.423 166.27 123.411 166.224L123.151 165.325C123.131 165.261 123.136 165.193 123.165 165.133C123.195 165.073 123.246 165.026 123.308 165.003C123.339 164.992 123.372 164.988 123.404 164.991C123.436 164.994 123.467 165.003 123.496 165.019C123.524 165.034 123.549 165.055 123.569 165.081C123.588 165.107 123.603 165.136 123.61 165.167L123.871 166.066C123.891 166.13 123.886 166.199 123.856 166.259C123.827 166.319 123.776 166.365 123.713 166.389C123.681 166.403 123.645 166.408 123.61 166.402Z" fill="white"/>
<path d="M127.308 163.699C126.893 163.644 126.498 163.483 126.162 163.233C126.109 163.193 126.074 163.134 126.064 163.069C126.053 163.004 126.069 162.937 126.107 162.883C126.123 162.855 126.144 162.831 126.169 162.812C126.195 162.792 126.224 162.779 126.255 162.772C126.286 162.764 126.318 162.764 126.35 162.77C126.381 162.776 126.411 162.789 126.437 162.808C126.846 163.109 127.351 163.248 127.857 163.199C127.889 163.196 127.922 163.2 127.952 163.21C127.983 163.221 128.011 163.237 128.035 163.259C128.059 163.281 128.078 163.308 128.091 163.338C128.104 163.367 128.111 163.399 128.11 163.432C128.116 163.497 128.097 163.562 128.056 163.613C128.015 163.664 127.956 163.698 127.891 163.706C127.697 163.728 127.501 163.726 127.308 163.699Z" fill="white"/>
<path d="M128.639 162.513H128.591C128.53 162.488 128.48 162.441 128.453 162.381C128.427 162.32 128.424 162.252 128.447 162.19C128.578 161.788 128.739 161.396 128.927 161.017C128.94 160.988 128.959 160.962 128.983 160.94C129.006 160.919 129.034 160.903 129.064 160.892C129.094 160.882 129.126 160.878 129.158 160.881C129.19 160.883 129.221 160.892 129.249 160.907C129.307 160.941 129.35 160.995 129.369 161.058C129.388 161.122 129.382 161.191 129.352 161.25C129.174 161.607 129.023 161.976 128.899 162.355C128.88 162.406 128.844 162.45 128.796 162.479C128.749 162.507 128.694 162.519 128.639 162.513Z" fill="white"/>
<path d="M131.63 163.295C131.596 163.291 131.564 163.28 131.535 163.262C131.507 163.245 131.483 163.22 131.465 163.192C131.307 162.95 131.13 162.721 130.937 162.506C130.891 162.456 130.866 162.391 130.866 162.324C130.866 162.257 130.891 162.192 130.937 162.142C130.959 162.118 130.985 162.1 131.015 162.087C131.044 162.074 131.076 162.067 131.108 162.067C131.141 162.067 131.172 162.074 131.202 162.087C131.231 162.1 131.258 162.118 131.28 162.142C131.487 162.375 131.677 162.623 131.849 162.883C131.886 162.939 131.901 163.006 131.891 163.072C131.881 163.138 131.846 163.198 131.794 163.24C131.748 163.278 131.689 163.298 131.63 163.295Z" fill="white"/>
<path d="M133.962 161.827C133.933 161.833 133.902 161.833 133.873 161.827C133.361 161.498 132.991 160.988 132.837 160.4C132.819 160.335 132.826 160.266 132.857 160.206C132.887 160.147 132.939 160.101 133.002 160.077C133.032 160.068 133.065 160.065 133.096 160.069C133.128 160.073 133.159 160.083 133.186 160.099C133.214 160.115 133.238 160.137 133.257 160.162C133.276 160.188 133.29 160.218 133.297 160.249C133.425 160.715 133.717 161.12 134.12 161.388C134.176 161.424 134.216 161.481 134.231 161.546C134.246 161.611 134.236 161.68 134.202 161.737C134.174 161.773 134.137 161.8 134.095 161.816C134.052 161.831 134.006 161.835 133.962 161.827Z" fill="white"/>
<path d="M135.828 162.664C135.789 162.656 135.752 162.64 135.72 162.616C135.688 162.592 135.661 162.562 135.643 162.526C135.616 162.465 135.613 162.395 135.633 162.331C135.653 162.267 135.695 162.212 135.753 162.176C136.135 161.972 136.464 161.68 136.713 161.326C136.732 161.3 136.756 161.277 136.784 161.261C136.811 161.244 136.842 161.233 136.874 161.229C136.906 161.224 136.939 161.226 136.97 161.235C137.001 161.243 137.03 161.258 137.056 161.278C137.106 161.322 137.138 161.383 137.144 161.449C137.15 161.516 137.131 161.582 137.09 161.635C136.796 162.049 136.411 162.392 135.965 162.636C135.923 162.659 135.875 162.669 135.828 162.664Z" fill="white"/>
<path d="M139.882 162.986C139.852 162.984 139.823 162.974 139.796 162.959C139.77 162.943 139.748 162.922 139.731 162.897C139.474 162.553 139.277 162.168 139.148 161.758C139.127 161.695 139.13 161.626 139.157 161.566C139.183 161.505 139.232 161.456 139.292 161.429C139.323 161.417 139.355 161.412 139.388 161.414C139.421 161.415 139.453 161.424 139.482 161.439C139.511 161.454 139.537 161.475 139.557 161.5C139.578 161.525 139.593 161.555 139.601 161.587C139.717 161.94 139.889 162.274 140.109 162.574C140.147 162.628 140.164 162.695 140.157 162.761C140.149 162.827 140.117 162.887 140.067 162.931C140.043 162.954 140.014 162.971 139.981 162.981C139.949 162.99 139.915 162.992 139.882 162.986Z" fill="white"/>
<path d="M141.316 165.311C141.277 165.305 141.241 165.289 141.21 165.265C141.179 165.241 141.154 165.21 141.138 165.174C141.109 165.113 141.104 165.044 141.123 164.98C141.142 164.915 141.184 164.86 141.241 164.824C141.551 164.65 141.845 164.448 142.119 164.221C142.143 164.2 142.171 164.184 142.201 164.174C142.232 164.165 142.264 164.162 142.296 164.166C142.328 164.17 142.358 164.18 142.386 164.197C142.413 164.213 142.437 164.236 142.455 164.262C142.493 164.316 142.511 164.382 142.503 164.448C142.495 164.514 142.463 164.575 142.414 164.619C142.119 164.878 141.8 165.108 141.46 165.305C141.414 165.32 141.364 165.323 141.316 165.311Z" fill="white"/>
<path d="M143.196 167.884C143.152 167.879 143.111 167.859 143.079 167.829L141.933 166.882C141.871 166.886 141.809 166.865 141.762 166.824C141.714 166.783 141.685 166.725 141.68 166.663C141.674 166.609 141.683 166.554 141.706 166.504C141.729 166.455 141.765 166.412 141.81 166.382C141.861 166.344 141.922 166.324 141.985 166.324C142.048 166.324 142.109 166.344 142.16 166.382L143.374 167.39C143.425 167.433 143.458 167.494 143.466 167.56C143.473 167.627 143.455 167.693 143.415 167.747C143.395 167.788 143.364 167.823 143.325 167.847C143.287 167.872 143.242 167.884 143.196 167.884Z" fill="white"/>
<path d="M143.772 170.628C143.734 170.623 143.699 170.61 143.667 170.588C143.636 170.567 143.611 170.538 143.594 170.505C143.564 170.443 143.557 170.374 143.575 170.308C143.592 170.243 143.633 170.186 143.69 170.148C144.062 169.921 144.391 169.631 144.664 169.29C144.683 169.264 144.708 169.243 144.736 169.227C144.764 169.211 144.795 169.201 144.828 169.197C144.86 169.194 144.892 169.198 144.923 169.208C144.954 169.218 144.983 169.234 145.007 169.256C145.051 169.306 145.076 169.371 145.076 169.438C145.076 169.505 145.051 169.569 145.007 169.62C144.698 170.006 144.324 170.336 143.902 170.594C143.864 170.619 143.818 170.632 143.772 170.628Z" fill="white"/>
<path d="M142.455 172.809C142.423 172.805 142.393 172.795 142.366 172.778C142.338 172.762 142.315 172.74 142.297 172.713C142.043 172.369 141.839 171.991 141.693 171.588C141.67 171.525 141.671 171.456 141.696 171.393C141.722 171.331 141.77 171.281 141.831 171.252C141.86 171.24 141.892 171.235 141.924 171.235C141.956 171.236 141.987 171.244 142.016 171.257C142.045 171.271 142.071 171.29 142.092 171.314C142.113 171.338 142.129 171.366 142.139 171.396C142.275 171.751 142.455 172.088 142.674 172.398C142.713 172.452 142.73 172.518 142.722 172.584C142.715 172.65 142.683 172.711 142.633 172.755C142.609 172.776 142.581 172.792 142.55 172.801C142.519 172.811 142.487 172.813 142.455 172.809Z" fill="white"/>
<path d="M144.225 175.835C144.171 175.828 144.122 175.801 144.087 175.759C144.042 175.71 144.016 175.645 144.016 175.577C144.016 175.51 144.042 175.445 144.087 175.396L144.629 174.826C144.651 174.803 144.678 174.784 144.707 174.771C144.737 174.758 144.769 174.751 144.801 174.751C144.833 174.751 144.865 174.758 144.894 174.771C144.924 174.784 144.951 174.803 144.972 174.826C145.018 174.876 145.044 174.941 145.044 175.008C145.044 175.076 145.018 175.14 144.972 175.19L144.43 175.752C144.405 175.781 144.373 175.803 144.337 175.817C144.301 175.831 144.263 175.837 144.225 175.835Z" fill="white"/>
<path d="M142.921 177.598H142.859C142.585 177.46 142.348 177.257 142.168 177.008C141.989 176.758 141.873 176.468 141.83 176.164C141.82 176.098 141.834 176.03 141.871 175.974C141.908 175.919 141.965 175.878 142.029 175.862C142.062 175.857 142.094 175.859 142.126 175.867C142.157 175.875 142.186 175.89 142.212 175.91C142.238 175.93 142.259 175.955 142.275 175.983C142.291 176.011 142.3 176.043 142.304 176.075C142.337 176.298 142.422 176.511 142.553 176.694C142.685 176.878 142.858 177.028 143.058 177.131C143.118 177.161 143.164 177.213 143.185 177.275C143.207 177.338 143.204 177.407 143.175 177.467C143.152 177.513 143.115 177.551 143.07 177.574C143.024 177.598 142.972 177.606 142.921 177.598Z" fill="white"/>
<path d="M142.228 181.028C142.191 181.02 142.156 181.005 142.125 180.982C142.094 180.96 142.068 180.931 142.05 180.897C142.019 180.838 142.012 180.769 142.03 180.704C142.047 180.639 142.089 180.583 142.146 180.548L143.374 179.82C143.402 179.804 143.432 179.793 143.464 179.789C143.496 179.785 143.529 179.787 143.56 179.796C143.591 179.805 143.619 179.821 143.644 179.841C143.669 179.862 143.689 179.888 143.703 179.916C143.734 179.976 143.741 180.045 143.724 180.11C143.706 180.175 143.664 180.231 143.607 180.266L142.407 180.993C142.354 181.027 142.29 181.039 142.228 181.028Z" fill="white"/>
<path d="M139.622 181.83C139.562 181.818 139.509 181.785 139.472 181.737C139.434 181.689 139.414 181.63 139.416 181.57C139.439 181.029 139.501 180.49 139.601 179.958C139.605 179.925 139.616 179.894 139.632 179.865C139.649 179.837 139.671 179.812 139.697 179.792C139.723 179.772 139.753 179.758 139.785 179.75C139.817 179.742 139.85 179.74 139.882 179.745C139.947 179.761 140.003 179.802 140.038 179.858C140.074 179.914 140.087 179.981 140.074 180.047C139.977 180.554 139.918 181.068 139.896 181.583C139.896 181.649 139.87 181.712 139.824 181.758C139.777 181.804 139.715 181.83 139.649 181.83H139.622Z" fill="white"/>
<path d="M138.819 183.731C138.684 183.726 138.553 183.681 138.443 183.601C138.333 183.522 138.249 183.412 138.202 183.285C138.176 183.223 138.175 183.153 138.199 183.09C138.224 183.028 138.271 182.977 138.332 182.949C138.362 182.936 138.394 182.929 138.427 182.929C138.46 182.93 138.492 182.937 138.522 182.95C138.552 182.964 138.578 182.984 138.6 183.008C138.621 183.033 138.638 183.061 138.647 183.093C138.689 183.196 138.881 183.244 139.176 183.223L139.862 183.168C139.894 183.166 139.927 183.171 139.958 183.182C139.989 183.194 140.017 183.211 140.04 183.233C140.064 183.256 140.083 183.283 140.096 183.313C140.109 183.343 140.116 183.375 140.115 183.408C140.12 183.474 140.098 183.539 140.056 183.59C140.014 183.641 139.955 183.674 139.889 183.683L139.203 183.731C139.075 183.744 138.947 183.744 138.819 183.731Z" fill="white"/>
<path d="M137.09 185.302C137.053 185.295 137.018 185.281 136.987 185.26L136.535 184.924C136.41 184.831 136.29 184.73 136.178 184.622C135.894 184.279 135.686 183.879 135.567 183.449C135.546 183.385 135.549 183.316 135.575 183.254C135.602 183.192 135.65 183.142 135.711 183.113C135.742 183.102 135.774 183.098 135.805 183.1C135.837 183.101 135.869 183.11 135.898 183.124C135.926 183.138 135.952 183.157 135.973 183.181C135.994 183.206 136.01 183.234 136.02 183.264C136.113 183.625 136.281 183.961 136.514 184.252C136.606 184.342 136.705 184.424 136.809 184.499L137.269 184.835C137.32 184.878 137.353 184.938 137.362 185.004C137.37 185.07 137.354 185.137 137.317 185.192C137.295 185.231 137.261 185.263 137.221 185.282C137.18 185.302 137.135 185.309 137.09 185.302Z" fill="white"/>
<path d="M133.146 187.305C133.114 187.298 133.083 187.285 133.056 187.267C133.029 187.248 133.006 187.225 132.988 187.197C132.97 187.17 132.958 187.139 132.952 187.107C132.946 187.075 132.947 187.042 132.954 187.01C133.063 186.324 133.146 185.638 133.194 184.952C133.196 184.886 133.223 184.823 133.27 184.777C133.318 184.73 133.381 184.705 133.448 184.705C133.48 184.707 133.512 184.716 133.542 184.732C133.571 184.747 133.596 184.768 133.617 184.794C133.638 184.82 133.653 184.85 133.661 184.881C133.67 184.913 133.672 184.947 133.667 184.979C133.619 185.665 133.537 186.413 133.427 187.113C133.411 187.173 133.374 187.226 133.322 187.261C133.27 187.296 133.208 187.312 133.146 187.305Z" fill="white"/>
<path d="M129.99 186.406C129.934 186.395 129.884 186.366 129.846 186.324C129.802 186.273 129.777 186.209 129.777 186.142C129.777 186.075 129.802 186.01 129.846 185.96L131.177 184.684C131.198 184.661 131.224 184.642 131.253 184.629C131.282 184.616 131.313 184.609 131.345 184.609C131.377 184.609 131.408 184.616 131.437 184.629C131.466 184.642 131.492 184.661 131.513 184.684C131.559 184.734 131.584 184.798 131.584 184.866C131.584 184.933 131.559 184.998 131.513 185.048L130.189 186.324C130.164 186.351 130.134 186.373 130.099 186.388C130.065 186.402 130.027 186.408 129.99 186.406Z" fill="white"/>
<path d="M129.304 183.916C129.099 183.896 128.901 183.828 128.728 183.717C128.673 183.683 128.618 183.635 128.556 183.587C128.495 183.539 128.371 183.429 128.337 183.442C128.307 183.455 128.274 183.462 128.242 183.461C128.209 183.46 128.177 183.452 128.148 183.438C128.119 183.424 128.093 183.403 128.072 183.378C128.051 183.353 128.036 183.323 128.028 183.292C128.007 183.229 128.01 183.16 128.037 183.099C128.063 183.038 128.112 182.989 128.172 182.962C128.296 182.932 128.425 182.936 128.546 182.975C128.668 183.014 128.775 183.085 128.858 183.182C128.899 183.216 128.941 183.257 128.982 183.285C129.137 183.364 129.308 183.408 129.482 183.415C129.548 183.427 129.605 183.463 129.644 183.517C129.682 183.571 129.698 183.638 129.688 183.703C129.681 183.768 129.65 183.828 129.6 183.87C129.55 183.912 129.486 183.933 129.421 183.93L129.304 183.916Z" fill="white"/>
<path d="M127.13 185.247C126.944 185.193 126.753 185.163 126.56 185.157C126.528 185.155 126.496 185.146 126.467 185.131C126.438 185.116 126.412 185.096 126.391 185.071C126.37 185.046 126.354 185.017 126.344 184.986C126.335 184.955 126.331 184.922 126.334 184.89C126.333 184.857 126.339 184.825 126.351 184.794C126.363 184.764 126.381 184.736 126.404 184.713C126.427 184.69 126.455 184.672 126.485 184.66C126.515 184.648 126.548 184.642 126.581 184.643C126.813 184.648 127.044 184.685 127.267 184.753C127.33 184.775 127.383 184.821 127.412 184.881C127.442 184.942 127.446 185.011 127.424 185.075C127.417 185.106 127.403 185.135 127.383 185.16C127.364 185.185 127.34 185.206 127.313 185.222C127.285 185.238 127.255 185.249 127.224 185.253C127.192 185.257 127.16 185.255 127.13 185.247Z" fill="white"/>
<path d="M125.538 182.763H125.49C125.122 182.589 124.8 182.331 124.55 182.009C124.395 181.821 124.218 181.653 124.022 181.508C123.969 181.467 123.933 181.408 123.922 181.342C123.91 181.276 123.924 181.208 123.96 181.151C123.977 181.124 123.999 181.1 124.025 181.081C124.051 181.063 124.081 181.049 124.112 181.042C124.144 181.035 124.176 181.035 124.208 181.04C124.239 181.046 124.269 181.058 124.296 181.076C124.515 181.244 124.715 181.435 124.893 181.645C125.097 181.912 125.36 182.128 125.661 182.276C125.722 182.303 125.77 182.353 125.795 182.414C125.821 182.475 125.822 182.543 125.799 182.606C125.779 182.657 125.743 182.701 125.696 182.729C125.648 182.758 125.593 182.77 125.538 182.763Z" fill="white"/>
<path d="M122.876 179.711C122.82 179.702 122.768 179.673 122.732 179.628C122.688 179.578 122.663 179.513 122.663 179.447C122.663 179.38 122.688 179.315 122.732 179.265L123.631 178.345C123.652 178.322 123.678 178.303 123.707 178.29C123.736 178.277 123.767 178.271 123.799 178.271C123.831 178.271 123.862 178.277 123.891 178.29C123.92 178.303 123.946 178.322 123.967 178.345C124.013 178.395 124.038 178.46 124.038 178.527C124.038 178.595 124.013 178.66 123.967 178.709L123.068 179.628C123.045 179.656 123.015 179.678 122.982 179.692C122.949 179.706 122.913 179.713 122.876 179.711Z" fill="white"/>
<path d="M121.902 177.241C121.423 177.143 120.994 176.881 120.688 176.5C120.644 176.45 120.619 176.385 120.619 176.318C120.619 176.251 120.644 176.187 120.688 176.137C120.71 176.113 120.736 176.094 120.766 176.081C120.795 176.068 120.827 176.061 120.859 176.061C120.892 176.061 120.924 176.068 120.953 176.081C120.983 176.094 121.009 176.113 121.031 176.137C121.263 176.434 121.594 176.639 121.964 176.713C122.029 176.728 122.086 176.768 122.122 176.824C122.158 176.881 122.17 176.949 122.156 177.015C122.151 177.078 122.122 177.136 122.074 177.178C122.027 177.221 121.965 177.243 121.902 177.241Z" fill="white"/>
<path d="M123.384 175.951C123.341 175.943 123.301 175.924 123.267 175.896C123.217 175.853 123.186 175.792 123.178 175.726C123.17 175.66 123.188 175.594 123.226 175.54C123.487 175.182 123.695 174.79 123.844 174.374C123.854 174.343 123.87 174.315 123.891 174.291C123.912 174.267 123.937 174.247 123.966 174.233C123.995 174.219 124.026 174.211 124.058 174.209C124.09 174.207 124.122 174.212 124.152 174.223C124.213 174.25 124.261 174.299 124.286 174.36C124.312 174.421 124.313 174.49 124.289 174.552C124.122 175.014 123.891 175.45 123.603 175.848C123.579 175.884 123.546 175.912 123.508 175.93C123.469 175.948 123.426 175.955 123.384 175.951Z" fill="white"/>
<path d="M122.108 174.058C121.649 173.996 121.206 173.852 120.798 173.633C120.74 173.599 120.697 173.545 120.678 173.482C120.659 173.418 120.665 173.349 120.695 173.29C120.708 173.261 120.727 173.235 120.751 173.213C120.774 173.191 120.802 173.175 120.832 173.164C120.862 173.153 120.893 173.148 120.925 173.15C120.957 173.151 120.988 173.159 121.017 173.173C121.385 173.367 121.785 173.495 122.197 173.55C122.231 173.555 122.263 173.566 122.292 173.583C122.321 173.6 122.346 173.622 122.367 173.649C122.387 173.676 122.402 173.706 122.411 173.739C122.419 173.771 122.421 173.805 122.417 173.838C122.412 173.872 122.401 173.904 122.384 173.933C122.367 173.962 122.345 173.988 122.318 174.008C122.291 174.028 122.261 174.043 122.228 174.052C122.196 174.06 122.162 174.063 122.129 174.058H122.108Z" fill="white"/>
</g>
<path d="M195.38 165.504C195.38 165.504 196.443 187.723 200.381 203.062C200.381 203.062 159.961 213.743 147.483 203.947C147.483 203.947 144.499 182.386 155.715 162.849L195.38 165.504Z" fill="#1C6DAB"/>
<path opacity="0.5" d="M200.387 203.055C200.387 203.055 159.968 213.743 147.483 203.94C147.483 203.94 144.499 182.379 155.715 162.849L176.206 164.221L195.414 165.504C195.414 165.504 195.661 170.58 196.34 177.55C197.06 185.157 198.329 195.043 200.387 203.055Z" fill="white"/>
<path opacity="0.1" d="M196.313 177.543C186.77 184.204 180.802 178.99 180.802 178.99C180.802 178.99 177.043 181.824 175.554 171.691C175.122 168.735 174.422 166.443 176.192 164.214L195.4 165.497C195.4 165.497 195.633 170.573 196.313 177.543Z" fill="#02080D"/>
<path d="M146.694 145.507C146.998 149.161 148.129 152.698 150.001 155.852C154.247 162.924 162.417 166.203 170.416 166.011C176.859 165.928 183.082 163.654 188.06 159.563C191.312 156.646 193.86 153.029 195.51 148.985C197.241 144.916 198.326 140.601 198.727 136.198C198.857 134.694 198.891 133.185 198.83 131.677C198.725 128.477 197.866 125.347 196.324 122.541C194.782 119.735 192.599 117.332 189.953 115.528C184.11 111.664 177.099 109.965 170.135 110.726C168.987 110.838 167.851 111.049 166.739 111.358C161.016 112.843 156.053 116.409 152.82 121.359C147.847 128.611 146.015 138.132 146.694 145.507Z" fill="#F7A9A0"/>
<path d="M170.752 133.371C170.665 133.231 170.615 133.07 170.608 132.905C170.637 132.696 170.747 132.508 170.914 132.379C171.081 132.251 171.291 132.193 171.5 132.219C172.753 132.334 173.959 132.751 175.015 133.434C176.071 134.118 176.946 135.047 177.564 136.143C177.611 136.236 177.639 136.337 177.647 136.441C177.654 136.545 177.641 136.65 177.608 136.749C177.575 136.848 177.522 136.939 177.453 137.018C177.385 137.096 177.301 137.16 177.208 137.206C177.017 137.287 176.804 137.296 176.608 137.23C176.412 137.164 176.247 137.029 176.144 136.849C175.636 135.984 174.924 135.255 174.071 134.727C173.217 134.199 172.248 133.886 171.246 133.817C171.03 133.739 170.853 133.579 170.752 133.371Z" fill="#57595C"/>
<path d="M152.731 132.164C152.578 132.101 152.443 131.999 152.34 131.869C152.241 131.684 152.217 131.467 152.275 131.265C152.332 131.062 152.467 130.89 152.649 130.785C153.731 130.141 154.954 129.768 156.212 129.699C157.47 129.63 158.725 129.866 159.872 130.387C159.964 130.436 160.046 130.502 160.113 130.582C160.179 130.662 160.229 130.754 160.26 130.854C160.29 130.953 160.301 131.058 160.291 131.161C160.281 131.265 160.251 131.366 160.202 131.457C160.096 131.636 159.929 131.769 159.731 131.831C159.533 131.893 159.32 131.88 159.131 131.794C158.211 131.394 157.208 131.224 156.207 131.299C155.207 131.375 154.24 131.693 153.39 132.226C153.281 132.26 153.167 132.272 153.054 132.261C152.941 132.251 152.831 132.218 152.731 132.164Z" fill="#57595C"/>
<path d="M160.202 145.047L155.907 147.551C155.907 147.551 156.703 149.266 160.359 150.171L160.202 145.047Z" fill="#DC897C"/>
<path opacity="0.1" d="M166.698 111.385C160.975 112.87 156.012 116.437 152.779 121.387C161.793 117.23 185.131 118.821 184.198 130.936C183.361 141.837 187.491 150.082 195.469 148.985C197.199 144.916 198.285 140.601 198.686 136.198C198.816 134.694 198.85 133.185 198.789 131.677C198.684 128.477 197.825 125.347 196.283 122.541C194.74 119.735 192.558 117.332 189.912 115.528C184.069 111.664 177.058 109.965 170.094 110.726C168.945 110.847 167.809 111.067 166.698 111.385Z" fill="#02080D"/>
<path opacity="0.1" d="M149.788 123.699C149.884 123.699 149.973 123.534 150.083 123.294C149.973 123.431 149.877 123.562 149.788 123.699Z" fill="#02080D"/>
<path d="M188.78 144.196C188.78 144.196 193.335 136.143 197.403 139.278C201.471 142.413 199.07 156.428 192.601 155.742C186.132 155.056 185.35 148.415 188.78 144.196Z" fill="#F7A9A0"/>
<path d="M172.515 114.218C170.303 113.381 167.911 113.131 165.573 113.491C165.573 113.491 168.44 111.337 173.592 112.407C179.224 113.58 180.02 116.736 180.02 116.736C178.955 117.197 177.812 117.451 176.652 117.484C175.677 117.517 174.702 117.497 173.729 117.422C174.491 118.643 176.618 119.377 176.618 119.377C173.791 120.962 169.277 120.399 169.277 120.399C171.246 122.69 174.765 123.02 174.765 123.02C167.288 124.68 163.865 121.606 163.865 121.606C165.148 125.249 170.094 125.784 170.094 125.784C170.094 125.784 160.538 127.451 159.557 119.734C158.919 114.657 166.286 113.457 172.515 114.218Z" fill="#F7A9A0"/>
<path opacity="0.4" d="M172.515 114.218C170.303 113.381 167.911 113.131 165.573 113.491C165.573 113.491 168.44 111.337 173.592 112.407C179.224 113.58 180.02 116.736 180.02 116.736C178.955 117.197 177.812 117.451 176.652 117.484C175.677 117.517 174.702 117.497 173.729 117.422C174.491 118.643 176.618 119.377 176.618 119.377C173.791 120.962 169.277 120.399 169.277 120.399C171.246 122.69 174.765 123.02 174.765 123.02C167.288 124.68 163.865 121.606 163.865 121.606C165.148 125.249 170.094 125.784 170.094 125.784C170.094 125.784 160.538 127.451 159.557 119.734C158.919 114.657 166.286 113.457 172.515 114.218Z" fill="#02080D"/>
<path d="M174.203 142.838C174.203 143.936 173.455 144.821 172.577 144.8C172.159 144.89 171.723 144.847 171.33 144.678C170.938 144.508 170.607 144.221 170.386 143.855C170.164 143.489 170.062 143.063 170.093 142.637C170.124 142.21 170.288 141.804 170.561 141.475C170.834 141.145 171.202 140.909 171.616 140.799C172.029 140.689 172.466 140.711 172.867 140.86C173.268 141.01 173.611 141.281 173.851 141.636C174.09 141.99 174.213 142.411 174.203 142.838Z" fill="#57595C"/>
<path d="M157.492 141.466C157.419 141.765 157.264 142.038 157.043 142.252C156.823 142.467 156.546 142.614 156.245 142.679C155.944 142.743 155.631 142.72 155.343 142.614C155.054 142.508 154.801 142.323 154.613 142.08C154.425 141.836 154.309 141.544 154.28 141.238C154.25 140.932 154.308 140.623 154.446 140.349C154.584 140.074 154.797 139.843 155.061 139.684C155.324 139.525 155.627 139.444 155.935 139.449C156.406 139.516 156.833 139.764 157.124 140.141C157.415 140.518 157.547 140.993 157.492 141.466Z" fill="#57595C"/>
<path d="M174.724 153.814C174.038 156.785 171.74 160.263 165.12 160.626C165.12 160.626 164.99 160.098 164.722 159.309C164.091 157.457 162.664 154.198 160.304 153.396C160.304 153.396 161.189 153.43 162.623 153.327C163.522 153.258 164.626 153.135 165.861 152.915C166.949 152.715 168.025 152.457 169.085 152.14C170.181 151.811 171.252 151.403 172.289 150.919C173.192 150.505 174.066 150.029 174.903 149.492C175.124 150.931 175.064 152.399 174.724 153.814Z" fill="#57595C"/>
<path d="M174.724 153.814C174.038 156.785 171.74 160.263 165.12 160.626C165.12 160.626 164.99 160.098 164.722 159.309C167.339 156.399 170.865 154.462 174.724 153.814Z" fill="#DC897C"/>
<path d="M194.749 172.727C188.575 178.366 180.816 182.873 172.303 183.635C164.482 184.046 157.211 182.626 149.788 180.458C148.987 180.208 148.298 179.688 147.838 178.986C147.379 178.284 147.177 177.444 147.268 176.61C147.358 175.775 147.736 174.999 148.336 174.412C148.936 173.825 149.72 173.465 150.556 173.393C154.028 172.995 157.567 172.707 160.97 172.405C164.372 172.103 168.2 171.787 171.397 170.848C173.638 169.979 175.773 168.861 177.763 167.514C180.336 165.84 182.936 163.823 185.364 161.902C192.711 156.544 201.06 166.238 194.749 172.727Z" fill="#F7A9A0"/>
<path d="M175.554 166.951L189.912 180.369C189.912 180.369 203.2 172.137 195.681 162.341C188.163 152.545 175.554 166.951 175.554 166.951Z" fill="#1C6DAB"/>
<path opacity="0.5" d="M175.554 166.951L189.912 180.369C189.912 180.369 203.2 172.137 195.681 162.341C188.163 152.545 175.554 166.951 175.554 166.951Z" fill="white"/>
<path d="M153.808 176.315C154.198 177.294 154.342 178.354 154.227 179.402L154.096 180.726C149.232 182.228 142.866 180.266 142.866 180.266L141 179.91C140.613 179.847 140.242 179.709 139.909 179.502C139.575 179.296 139.286 179.025 139.058 178.706C138.83 178.387 138.667 178.026 138.579 177.644C138.49 177.262 138.479 176.866 138.545 176.48L139.231 172.755C139.365 172.106 139.683 171.511 140.148 171.04C140.613 170.569 141.205 170.242 141.851 170.1L144.821 169.414C145.23 169.318 145.653 169.297 146.07 169.352C146.783 169.436 147.453 169.735 147.991 170.21L152.038 173.756C152.825 174.454 153.433 175.332 153.808 176.315Z" fill="#F7A9A0"/>
</svg>
